<?xml version="1.0" encoding="UTF-8" standalone="no"?>
<svg
   height="96"
   width="96"
   version="1.1"
   id="svg30796"
   sodipodi:docname="notification-network-ethernet-connected.svg"
   inkscape:version="1.2.2 (b0a8486541, 2022-12-01)"
   xmlns:inkscape="http://www.inkscape.org/namespaces/inkscape"
   xmlns:sodipodi="http://sodipodi.sourceforge.net/DTD/sodipodi-0.dtd"
   xmlns:xlink="http://www.w3.org/1999/xlink"
   xmlns="http://www.w3.org/2000/svg"
   xmlns:svg="http://www.w3.org/2000/svg">
  <sodipodi:namedview
     id="namedview30798"
     pagecolor="#ffffff"
     bordercolor="#000000"
     borderopacity="0.25"
     inkscape:showpageshadow="2"
     inkscape:pageopacity="0.0"
     inkscape:pagecheckerboard="0"
     inkscape:deskcolor="#d1d1d1"
     showgrid="false"
     inkscape:zoom="10.666667"
     inkscape:cx="48.046875"
     inkscape:cy="48.046875"
     inkscape:current-layer="svg30796" />
  <defs
     id="defs30752">
    <linearGradient
       id="linearGradient31313"
       stop-color="#fff">
      <stop
         offset="0"
         id="stop31309"
         style="stop-color:#ffffff;stop-opacity:1;" />
      <stop
         stop-opacity="0"
         offset="1"
         id="stop31311"
         style="stop-color:#ffffff;stop-opacity:0;" />
    </linearGradient>
    <linearGradient
       id="linearGradient31307"
       stop-color="#fff">
      <stop
         offset="0"
         id="stop31303"
         style="stop-color:#ffffff;stop-opacity:1;" />
      <stop
         stop-opacity="0"
         offset="1"
         id="stop31305" />
    </linearGradient>
    <linearGradient
       id="a">
      <stop
         stop-color="#ffdf39"
         offset="0"
         id="stop30709" />
      <stop
         stop-color="#eb9c00"
         stop-opacity="0"
         offset="1"
         id="stop30711" />
    </linearGradient>
    <linearGradient
       id="b"
       stop-color="#fff">
      <stop
         offset="0"
         id="stop30714" />
      <stop
         stop-opacity="0"
         offset="1"
         id="stop30716" />
    </linearGradient>
    <clipPath
       id="s">
      <rect
         rx="6"
         ry="6"
         height="84"
         width="84"
         y="6"
         x="6"
         fill="#fff"
         id="rect30719" />
    </clipPath>
    <filter
       id="c"
       height="1.3915758"
       width="1.3915758"
       color-interpolation-filters="sRGB"
       y="-0.19578789"
       x="-0.19578789">
      <feGaussianBlur
         stdDeviation="5.28"
         id="feGaussianBlur30722" />
    </filter>
    <linearGradient
       id="d"
       stop-color="#fff"
       y2="138.66"
       gradientUnits="userSpaceOnUse"
       x2="48"
       y1="20.221"
       x1="48">
      <stop
         offset="0"
         id="stop30725"
         style="stop-color:#ffffff;stop-opacity:1;" />
      <stop
         stop-opacity="0"
         offset="1"
         id="stop30727"
         style="stop-color:#ffffff;stop-opacity:0;" />
    </linearGradient>
    <linearGradient
       id="r"
       y2="80"
       xlink:href="#linearGradient31307"
       gradientUnits="userSpaceOnUse"
       x2="48"
       y1="8"
       x1="48" />
    <linearGradient
       id="q"
       y2="5.9877"
       gradientUnits="userSpaceOnUse"
       x2="48"
       gradientTransform="translate(2,2)"
       y1="90"
       x1="48">
      <stop
         stop-color="#aaa"
         offset="0"
         id="stop30731" />
      <stop
         stop-color="#f0f0f0"
         offset="1"
         id="stop30733" />
    </linearGradient>
    <linearGradient
       id="p"
       y2="61"
       xlink:href="#a"
       gradientUnits="userSpaceOnUse"
       x2="33"
       gradientTransform="matrix(.5 0 0 1 46 0)"
       y1="68"
       x1="33" />
    <linearGradient
       id="o"
       y2="61"
       xlink:href="#a"
       gradientUnits="userSpaceOnUse"
       x2="33"
       gradientTransform="matrix(.5 0 0 1 42 0)"
       y1="68"
       x1="33" />
    <linearGradient
       id="n"
       y2="61"
       xlink:href="#a"
       gradientUnits="userSpaceOnUse"
       x2="33"
       gradientTransform="matrix(.5 0 0 1 38 0)"
       y1="68"
       x1="33" />
    <linearGradient
       id="m"
       y2="61"
       xlink:href="#a"
       gradientUnits="userSpaceOnUse"
       x2="33"
       gradientTransform="matrix(.5 0 0 1 34 0)"
       y1="68"
       x1="33" />
    <linearGradient
       id="l"
       y2="61"
       xlink:href="#a"
       gradientUnits="userSpaceOnUse"
       x2="33"
       gradientTransform="matrix(.5 0 0 1 30 0)"
       y1="68"
       x1="33" />
    <linearGradient
       id="k"
       y2="61"
       xlink:href="#a"
       gradientUnits="userSpaceOnUse"
       x2="33"
       gradientTransform="matrix(.5 0 0 1 26 0)"
       y1="68"
       x1="33" />
    <linearGradient
       id="j"
       y2="61"
       xlink:href="#a"
       gradientUnits="userSpaceOnUse"
       x2="33"
       gradientTransform="matrix(.5 0 0 1 22 0)"
       y1="68"
       x1="33" />
    <linearGradient
       id="i"
       y2="61"
       xlink:href="#a"
       gradientUnits="userSpaceOnUse"
       x2="33"
       gradientTransform="matrix(.5 0 0 1 18 0)"
       y1="68"
       x1="33" />
    <radialGradient
       id="e"
       xlink:href="#b"
       gradientUnits="userSpaceOnUse"
       cy="70"
       cx="48"
       gradientTransform="matrix(1.1875 0 0 .5625 -9 27)"
       r="16" />
    <linearGradient
       id="h"
       y2="24"
       xlink:href="#b"
       gradientUnits="userSpaceOnUse"
       x2="48"
       y1="72"
       x1="48" />
    <linearGradient
       id="g"
       y2="72"
       gradientUnits="userSpaceOnUse"
       x2="48"
       y1="24"
       x1="48">
      <stop
         offset="0"
         id="stop30746" />
      <stop
         stop-color="#393939"
         offset="1"
         id="stop30748" />
    </linearGradient>
    <linearGradient
       id="f"
       y2="32.988"
       xlink:href="#linearGradient31313"
       gradientUnits="userSpaceOnUse"
       x2="53"
       y1="74"
       x1="53" />
  </defs>
  <path
     opacity="0.08"
     d="m12 6.0312c-3.8292 0-6.9688 3.1396-6.9688 6.9688v72c0 3.8292 3.1396 6.9688 6.9688 6.9688h72c3.8292 0 6.9688-3.1396 6.9688-6.9688v-72c0-3.8292-3.14-6.9688-6.969-6.9688h-72z"
     id="path30754" />
  <path
     opacity=".1"
     d="m12 7c-3.3032 0-6 2.6968-6 6v72c0 3.3032 2.6968 6 6 6h72c3.3032 0 6-2.6968 6-6v-72c0-3.3032-2.697-6-6-6h-72z"
     id="path30756" />
  <path
     opacity=".15"
     d="m12 8c-2.7584 0-5 2.242-5 5v72c0 2.7584 2.2416 5 5 5h72c2.7584 0 5-2.2416 5-5v-72c0-2.758-2.242-5-5-5h-72z"
     id="path30758" />
  <rect
     opacity=".3"
     rx="4"
     ry="4"
     height="80"
     width="80"
     y="9"
     x="8"
     id="rect30760" />
  <rect
     rx="4"
     ry="4"
     height="80"
     width="80"
     y="8"
     x="8"
     fill="url(#q)"
     id="rect30762" />
  <path
     opacity=".6"
     d="m12 8c-2.216 0-4 1.784-4 4v72c0 1.7989 1.1844 3.275 2.8125 3.7812-1.0795-0.45-1.812-1.521-1.812-2.781v-72c0-1.6801 1.3199-3 3-3h72c1.6801 0 3 1.3199 3 3v72c0 1.2601-0.73249 2.3313-1.8125 2.7812 1.628-0.506 2.812-1.982 2.812-3.781v-72c0-2.216-1.784-4-4-4h-72zm73.188 79.781c-0.15886 0.06619-0.32783 0.08639-0.5 0.125 0.17333-0.02984 0.33519-0.07375 0.5-0.125zm-74.375 0c0.16481 0.05125 0.32667 0.09516 0.5 0.125-0.17217-0.03861-0.34114-0.05881-0.5-0.125z"
     fill="url(#r)"
     id="path30764" />
  <rect
     opacity=".15"
     clip-path="url(#s)"
     rx="12"
     ry="12"
     height="66"
     filter="url(#c)"
     width="66"
     stroke="#fff"
     stroke-linecap="round"
     y="15"
     x="15"
     stroke-width=".5"
     fill="url(#d)"
     id="rect30766" />
  <path
     opacity=".6"
     d="m39.812 22.031a1.9844 1.9844 0 0 0 -1.781 1.969v2.0312h-2.0312a1.9844 1.9844 0 0 0 -1.969 1.969v2.0312h-7.0312c-2.7269 0-4.9688 2.2418-4.9688 4.9688v34c0 2.7269 2.2418 4.9688 4.9688 4.9688h42c2.7269 0 4.9688-2.2418 4.9688-4.9688v-34c0-2.7269-2.2418-4.9688-4.9688-4.9688h-7.0312v-2.0312a1.9844 1.9844 0 0 0 -1.969 -1.969h-2.032v-2.031a1.9844 1.9844 0 0 0 -1.969 -1.969h-16a1.9844 1.9844 0 0 0 -0.1875 0z"
     fill="url(#f)"
     id="path30768" />
  <path
     d="m40 24v4h-4v4h-9c-1.662 0-3 1.338-3 3v34c0 1.662 1.338 3 3 3h42c1.662 0 3-1.338 3-3v-34c0-1.662-1.338-3-3-3h-9v-4h-4v-4h-16z"
     fill="url(#g)"
     id="path30770" />
  <path
     opacity=".15"
     d="m40 22v2h16v-2h-16zm-4 4v2h4v-2h-4zm20 0v2h4v-2h-4zm-29 4c-1.662 0-3 1.338-3 3v2c0-1.662 1.338-3 3-3h9v-2h-9zm33 0v2h9c1.662 0 3 1.338 3 3v-2c0-1.662-1.338-3-3-3h-9z"
     id="path30772" />
  <path
     opacity=".2"
     d="m40 24v4h-4v4h-9c-1.662 0-3 1.338-3 3v34c0 1.662 1.338 3 3 3h42c1.662 0 3-1.338 3-3v-34c0-1.662-1.338-3-3-3h-9v-4h-4v-4h-16zm1.9688 1.9688h12.062v2.031a1.975 1.975 0 0 0 1.969 1.969h2.0312v2.0312a1.975 1.975 0 0 0 1.969 1.969h9c0.60214 0 1.0312 0.42911 1.0312 1.0312v34c0 0.60214-0.42911 1.0312-1.0312 1.0312h-42c-0.60214 0-1.0312-0.42911-1.0312-1.0312v-34c0-0.60214 0.42911-1.0312 1.0312-1.0312h9a1.975 1.975 0 0 0 1.969 -1.969v-2.031h2.0312a1.975 1.975 0 0 0 1.969 -1.969v-2.0312z"
     fill="url(#h)"
     id="path30774" />
  <rect
     opacity=".2"
     height="18"
     width="38"
     y="54"
     x="29"
     fill="url(#e)"
     id="rect30776" />
  <rect
     height="7"
     width="1"
     y="61"
     x="34"
     fill="url(#i)"
     id="rect30778" />
  <path
     opacity=".3"
     d="m40 23v1h16v-1h-16zm-4 4v1h4v-1h-4zm20 0v1h4v-1h-4zm-29 4c-1.662 0-3 1.338-3 3v1c0-1.662 1.338-3 3-3h9v-1h-9zm33 0v1h9c1.662 0 3 1.338 3 3v-1c0-1.662-1.338-3-3-3h-9z"
     id="path30780" />
  <rect
     height="7"
     width="1"
     y="61"
     x="38"
     fill="url(#j)"
     id="rect30782" />
  <rect
     height="7"
     width="1"
     y="61"
     x="42"
     fill="url(#k)"
     id="rect30784" />
  <rect
     height="7"
     width="1"
     y="61"
     x="46"
     fill="url(#l)"
     id="rect30786" />
  <rect
     height="7"
     width="1"
     y="61"
     x="50"
     fill="url(#m)"
     id="rect30788" />
  <rect
     height="7"
     width="1"
     y="61"
     x="54"
     fill="url(#n)"
     id="rect30790" />
  <rect
     height="7"
     width="1"
     y="61"
     x="58"
     fill="url(#o)"
     id="rect30792" />
  <rect
     height="7"
     width="1"
     y="61"
     x="62"
     fill="url(#p)"
     id="rect30794" />
</svg>
