<?xml version="1.0" encoding="UTF-8" standalone="no"?>
<svg xmlns="http://www.w3.org/2000/svg" height="16" width="16" version="1.1">
    <metadata
     id="metadata2413">
    <rdf:RDF>
      <cc:Work
         rdf:about="">
        <dc:format>image/svg+xml</dc:format>
        <dc:type
           rdf:resource="http://purl.org/dc/dcmitype/StillImage" />
        <cc:license
           rdf:resource="https://www.gnu.org/licenses/gpl-3.0.html" />
      </cc:Work>
    </rdf:RDF>
  </metadata>
 <path d="m8 0s-2 3-6 3c0 11 6 13 6 13s6-2 6-13c-4 0-6-3-6-3zm0 3c0.90021 0.74015 2.0821 1.3257 3.6875 1.75-0.27972 3.9231-1.3831 6.221-2.4062 7.5-0.5349 0.669-0.9399 1.038-1.2813 1.281-0.3414-0.243-0.7464-0.612-1.2812-1.281-1.0232-1.279-2.1266-3.5769-2.4063-7.5 1.6054-0.4243 2.7873-1.0098 3.6875-1.75z" fill="#bebebe"/>
</svg>
