<?xml version="1.0" encoding="UTF-8" standalone="no"?>
<svg xmlns="http://www.w3.org/2000/svg" height="16" width="16" version="1.1">
    <metadata
     id="metadata2413">
    <rdf:RDF>
      <cc:Work
         rdf:about="">
        <dc:format>image/svg+xml</dc:format>
        <dc:type
           rdf:resource="http://purl.org/dc/dcmitype/StillImage" />
        <cc:license
           rdf:resource="https://www.gnu.org/licenses/gpl-3.0.html" />
      </cc:Work>
    </rdf:RDF>
  </metadata>
 <g fill="#bebebe">
  <path d="m7 1c-1.8769 0-3.4437 1.2876-3.875 3.0312-1.201 0.1826-2.125 1.2169-2.125 2.4688 0 1.3807 1.1193 2.5 2.5 2.5h1.7812c0.3461-0.5969 0.9792-1 1.7188-1s1.3727 0.4031 1.7188 1h3.7812c1.381 0 2.5-1.1193 2.5-2.5 0-1.2081-0.861-2.2044-2-2.4375 0.001-0.021 0-0.0414 0-0.0625 0-1.1046-0.895-2-2-2-0.38 0-0.729 0.1286-1.0312 0.3125-0.732-0.8099-1.7912-1.3125-2.9688-1.3125z"/>
  <path d="m7.3722 14a1.372 1.372 0 0 1 -2.744 0 1.372 1.372 0 1 1 2.744 0z"/>
  <path d="m11.372 12a1.372 1.372 0 0 1 -2.744 0 1.372 1.372 0 1 1 2.744 0z"/>
  <path d="m8.3722 10a1.372 1.372 0 0 1 -2.744 0 1.372 1.372 0 1 1 2.744 0z"/>
 </g>
</svg>
