<?xml version="1.0" encoding="UTF-8" standalone="no"?>
<svg xmlns="http://www.w3.org/2000/svg" height="16" width="16" version="1.1">
    <metadata
     id="metadata2413">
    <rdf:RDF>
      <cc:Work
         rdf:about="">
        <dc:format>image/svg+xml</dc:format>
        <dc:type
           rdf:resource="http://purl.org/dc/dcmitype/StillImage" />
        <cc:license
           rdf:resource="https://www.gnu.org/licenses/gpl-3.0.html" />
      </cc:Work>
    </rdf:RDF>
  </metadata>
 <g fill="#bebebe">
  <path d="m10.396 10.06c-0.8332 0.128-1.7448 0.455-2.6883 1.16-3.2445 2.425-5.5447 0.073-5.5447 0.073a0.67215 0.87021 0 1 0 -0.7841 1.3777s3.1613 2.9425 7.0009 0.07251c3.1669-2.3672 5.5447-0.03626 5.5447-0.03626a0.68365 0.8851 0 1 0 0.7841 -1.4502s-1.8131-1.5803-4.3125-1.1964z"/>
  <path d="m10.396 6.0601c-0.8333 0.128-1.745 0.4549-2.6885 1.1602-3.2445 2.4251-5.5447 0.0725-5.5447 0.0725a0.67215 0.87021 0 1 0 -0.7841 1.3777s3.1613 2.9425 7.0009 0.07251c3.1664-2.3672 5.5444-0.0363 5.5444-0.0363a0.68365 0.8851 0 1 0 0.7841 -1.4502s-1.8131-1.5803-4.3125-1.1964z"/>
  <path d="m10.396 2.0601c-0.8333 0.128-1.745 0.4549-2.6885 1.1602-3.2445 2.4251-5.5447 0.0725-5.5447 0.0725a0.67215 0.87021 0 1 0 -0.7841 1.3777s3.1613 2.9425 7.0009 0.07251c3.1664-2.3672 5.5444-0.0363 5.5444-0.0363a0.68365 0.8851 0 1 0 0.7841 -1.4502s-1.8131-1.5803-4.3125-1.1964z"/>
 </g>
</svg>
