<?xml version="1.0" encoding="UTF-8" standalone="no"?>
<svg
   height="96"
   width="96"
   version="1.1"
   id="svg7757"
   sodipodi:docname="cs-power.svg"
   inkscape:version="1.2.2 (b0a8486541, 2022-12-01)"
   xmlns:inkscape="http://www.inkscape.org/namespaces/inkscape"
   xmlns:sodipodi="http://sodipodi.sourceforge.net/DTD/sodipodi-0.dtd"
   xmlns:xlink="http://www.w3.org/1999/xlink"
   xmlns="http://www.w3.org/2000/svg"
   xmlns:svg="http://www.w3.org/2000/svg">
  <sodipodi:namedview
     id="namedview7759"
     pagecolor="#ffffff"
     bordercolor="#000000"
     borderopacity="0.25"
     inkscape:showpageshadow="2"
     inkscape:pageopacity="0.0"
     inkscape:pagecheckerboard="0"
     inkscape:deskcolor="#d1d1d1"
     showgrid="false"
     inkscape:zoom="5.3333333"
     inkscape:cx="22.40625"
     inkscape:cy="41.90625"
     inkscape:current-layer="svg7757" />
  <defs
     id="defs7697">
    <linearGradient
       id="linearGradient8298"
       y2="7.0165"
       gradientUnits="userSpaceOnUse"
       x2="45.448"
       gradientTransform="scale(1.0059 .99417)"
       y1="92.54"
       x1="45.448">
      <stop
         offset="0"
         id="stop8294" />
      <stop
         stop-opacity=".58824"
         offset="1"
         id="stop8296"
         style="stop-color:#000000;stop-opacity:0.58824003;" />
    </linearGradient>
    <linearGradient
       id="linearGradient8292"
       stop-color="#fff">
      <stop
         offset="0"
         id="stop8288"
         style="stop-color:#ffffff;stop-opacity:1;" />
      <stop
         stop-opacity="0"
         offset="1"
         id="stop8290"
         style="stop-color:#ffffff;stop-opacity:0;" />
    </linearGradient>
    <linearGradient
       id="linearGradient8286"
       stop-color="#fff">
      <stop
         offset="0"
         id="stop8282"
         style="stop-color:#ffffff;stop-opacity:1;" />
      <stop
         stop-opacity="0"
         offset="1"
         id="stop8284"
         style="stop-color:#ffffff;stop-opacity:0;" />
    </linearGradient>
    <linearGradient
       id="linearGradient8280"
       stop-color="#fff">
      <stop
         offset="0"
         id="stop8276"
         style="stop-color:#ffffff;stop-opacity:1;" />
      <stop
         stop-opacity="0"
         offset="1"
         id="stop8278"
         style="stop-color:#ffffff;stop-opacity:0;" />
    </linearGradient>
    <linearGradient
       id="linearGradient8274"
       stop-color="#fff">
      <stop
         offset="0"
         id="stop8270"
         style="stop-color:#ffffff;stop-opacity:1;" />
      <stop
         stop-opacity="0"
         offset="1"
         id="stop8272"
         style="stop-color:#ffffff;stop-opacity:0;" />
    </linearGradient>
    <linearGradient
       id="linearGradient8268"
       stop-color="#fff">
      <stop
         offset="0"
         id="stop8264"
         style="stop-color:#ffffff;stop-opacity:1;" />
      <stop
         stop-opacity="0"
         offset="1"
         id="stop8266"
         style="stop-color:#ffffff;stop-opacity:0;" />
    </linearGradient>
    <linearGradient
       id="a"
       stop-color="#fff">
      <stop
         offset="0"
         id="stop7646"
         style="stop-color:#ffffff;stop-opacity:1;" />
      <stop
         stop-opacity="0"
         offset="1"
         id="stop7648"
         style="stop-color:#ffffff;stop-opacity:0;" />
    </linearGradient>
    <linearGradient
       id="c">
      <stop
         stop-color="#666"
         offset="0"
         id="stop7651" />
      <stop
         stop-color="#e6e6e6"
         offset=".25016"
         id="stop7653" />
      <stop
         stop-color="#808080"
         offset=".51293"
         id="stop7655" />
      <stop
         stop-color="#474747"
         offset="1"
         id="stop7657" />
    </linearGradient>
    <linearGradient
       id="b"
       y2="7.0165"
       gradientUnits="userSpaceOnUse"
       x2="45.448"
       gradientTransform="scale(1.0059 .99417)"
       y1="92.54"
       x1="45.448">
      <stop
         offset="0"
         id="stop7660" />
      <stop
         stop-opacity=".58824"
         offset="1"
         id="stop7662" />
    </linearGradient>
    <linearGradient
       id="r"
       y2="47"
       xlink:href="#a"
       gradientUnits="userSpaceOnUse"
       x2="82.835"
       gradientTransform="translate(4)"
       y1="47"
       x1="64" />
    <linearGradient
       id="q"
       y2="24"
       xlink:href="#linearGradient8280"
       gradientUnits="userSpaceOnUse"
       x2="26"
       gradientTransform="matrix(.2381 0 0 1 47.19 0)"
       y1="90"
       x1="26" />
    <linearGradient
       id="p"
       y2="72.022"
       xlink:href="#linearGradient8292"
       gradientUnits="userSpaceOnUse"
       x2="26"
       gradientTransform="matrix(.57143 0 0 1 50.857 0)"
       y1="6"
       x1="26" />
    <linearGradient
       id="o"
       y2="120.02"
       xlink:href="#linearGradient8286"
       gradientUnits="userSpaceOnUse"
       x2="26"
       gradientTransform="translate(-2)"
       y1="6"
       x1="26" />
    <linearGradient
       id="n"
       y2="6.05"
       gradientUnits="userSpaceOnUse"
       x2="64"
       y1="6.05"
       x1="32">
      <stop
         stop-color="#d9d9d9"
         offset="0"
         id="stop7669" />
      <stop
         stop-color="#c6c6c6"
         offset=".25016"
         id="stop7671" />
      <stop
         stop-color="#696969"
         offset="1"
         id="stop7673" />
    </linearGradient>
    <linearGradient
       id="m"
       y2="3.3074"
       xlink:href="#linearGradient8298"
       gradientUnits="userSpaceOnUse"
       x2="40"
       y1="91"
       x1="40" />
    <linearGradient
       id="l"
       y2="7.0165"
       xlink:href="#b"
       gradientUnits="userSpaceOnUse"
       x2="45.448"
       gradientTransform="scale(1.0059 .99417)"
       y1="92.54"
       x1="45.448" />
    <linearGradient
       id="k"
       stop-color="#250"
       y2="63"
       gradientUnits="userSpaceOnUse"
       x2="32.019"
       gradientTransform="matrix(-1,0,0,1,96,0)"
       y1="63"
       x1="6">
      <stop
         offset="0"
         id="stop7678"
         style="stop-color:#000000;stop-opacity:1;" />
      <stop
         stop-opacity="0"
         offset="1"
         id="stop7680"
         style="stop-color:#000000;stop-opacity:0;" />
    </linearGradient>
    <radialGradient
       id="e"
       gradientUnits="userSpaceOnUse"
       cy="90.2"
       cx="48"
       gradientTransform="matrix(1.3333 5.3333e-8 -3.8095e-8 .95238 -16 -5.9048)"
       r="42">
      <stop
         stop-color="#88ff02"
         offset="0"
         id="stop7683" />
      <stop
         stop-color="#1f8000"
         offset="1"
         id="stop7685" />
    </radialGradient>
    <linearGradient
       id="j"
       y2="88"
       xlink:href="#c"
       gradientUnits="userSpaceOnUse"
       x2="-16"
       gradientTransform="matrix(0,1,1,0,0,96)"
       y1="8"
       x1="-16" />
    <linearGradient
       id="i"
       y2="88"
       xlink:href="#c"
       gradientUnits="userSpaceOnUse"
       x2="-16"
       gradientTransform="rotate(-90)"
       y1="8"
       x1="-16" />
    <linearGradient
       id="h"
       stop-color="#fff"
       y2="48"
       gradientUnits="userSpaceOnUse"
       x2="-6"
       gradientTransform="matrix(1,0,0,-1,96,96)"
       y1="48"
       x1="-90">
      <stop
         stop-opacity=".48062"
         offset="0"
         id="stop7690"
         style="stop-color:#ffffff;stop-opacity:0.48062003;" />
      <stop
         stop-opacity=".12403"
         offset="1"
         id="stop7692"
         style="stop-color:#ffffff;stop-opacity:0.12403002;" />
    </linearGradient>
    <linearGradient
       id="f"
       y2="63.893"
       xlink:href="#linearGradient8268"
       gradientUnits="userSpaceOnUse"
       x2="36.357"
       y1="6"
       x1="36.357" />
    <radialGradient
       id="d"
       xlink:href="#linearGradient8274"
       gradientUnits="userSpaceOnUse"
       cy="90.172"
       cx="48"
       gradientTransform="matrix(1.1573 0 0 .99591 -7.551 .19713)"
       r="42" />
    <linearGradient
       x1="45.447727"
       y1="92.539597"
       x2="45.447727"
       y2="7.0165396"
       id="linearGradient3825"
       xlink:href="#ButtonShadow"
       gradientUnits="userSpaceOnUse"
       gradientTransform="scale(1.0058652,0.994169)" />
    <linearGradient
       x1="45.447727"
       y1="92.539597"
       x2="45.447727"
       y2="7.0165396"
       id="ButtonShadow"
       gradientUnits="userSpaceOnUse"
       gradientTransform="scale(1.0058652,0.994169)">
      <stop
         id="stop3750"
         style="stop-color:#000000;stop-opacity:1"
         offset="0" />
      <stop
         id="stop3752"
         style="stop-color:#000000;stop-opacity:0.58823532"
         offset="1" />
    </linearGradient>
    <linearGradient
       x1="40"
       y1="91"
       x2="40"
       y2="3.3073549"
       id="linearGradient3794"
       xlink:href="#ButtonShadow"
       gradientUnits="userSpaceOnUse" />
    <radialGradient
       cx="48"
       cy="90.199997"
       r="42"
       fx="48"
       fy="90.199997"
       id="radialGradient3901"
       xlink:href="#linearGradient3702"
       gradientUnits="userSpaceOnUse"
       gradientTransform="matrix(1.3333333,5.3333334e-8,-3.8095238e-8,0.95238092,-15.999997,-5.9047602)" />
    <linearGradient
       id="linearGradient3702">
      <stop
         id="stop3705"
         style="stop-color:#88ff02;stop-opacity:1"
         offset="0" />
      <stop
         id="stop3707"
         style="stop-color:#1f8000;stop-opacity:1"
         offset="1" />
    </linearGradient>
    <linearGradient
       x1="6"
       y1="63"
       x2="32.019222"
       y2="63"
       id="linearGradient3897"
       xlink:href="#linearGradient3858"
       gradientUnits="userSpaceOnUse"
       gradientTransform="matrix(-1,0,0,1,96,0)" />
    <linearGradient
       id="linearGradient3858">
      <stop
         id="stop3860"
         style="stop-color:#225500;stop-opacity:1"
         offset="0" />
      <stop
         id="stop3862"
         style="stop-color:#225500;stop-opacity:0"
         offset="1" />
    </linearGradient>
    <linearGradient
       x1="32"
       y1="6.0500002"
       x2="64"
       y2="6.0500002"
       id="linearGradient3777"
       xlink:href="#linearGradient3788"
       gradientUnits="userSpaceOnUse" />
    <linearGradient
       id="linearGradient3788">
      <stop
         id="stop3790"
         style="stop-color:#d9d9d9;stop-opacity:1"
         offset="0" />
      <stop
         id="stop3792"
         style="stop-color:#c6c6c6;stop-opacity:1"
         offset="0.25015625" />
      <stop
         id="stop3796"
         style="stop-color:#696969;stop-opacity:1"
         offset="1" />
    </linearGradient>
    <linearGradient
       x1="-90"
       y1="48"
       x2="-6"
       y2="48"
       id="linearGradient3925"
       xlink:href="#linearGradient3614"
       gradientUnits="userSpaceOnUse"
       gradientTransform="matrix(1,0,0,-1,96,96)" />
    <linearGradient
       id="linearGradient3614">
      <stop
         id="stop3616"
         style="stop-color:#ffffff;stop-opacity:0.48062015"
         offset="0" />
      <stop
         id="stop3618"
         style="stop-color:#ffffff;stop-opacity:0.12403101"
         offset="1" />
    </linearGradient>
    <linearGradient
       x1="-16"
       y1="8"
       x2="-16"
       y2="88"
       id="linearGradient3761"
       xlink:href="#linearGradient3675"
       gradientUnits="userSpaceOnUse"
       gradientTransform="rotate(-90)" />
    <linearGradient
       id="linearGradient3675">
      <stop
         id="stop3677"
         style="stop-color:#666666;stop-opacity:1"
         offset="0" />
      <stop
         id="stop3683"
         style="stop-color:#e6e6e6;stop-opacity:1"
         offset="0.25015625" />
      <stop
         id="stop3685"
         style="stop-color:#808080;stop-opacity:1"
         offset="0.51292795" />
      <stop
         id="stop3679"
         style="stop-color:#474747;stop-opacity:1"
         offset="1" />
    </linearGradient>
    <linearGradient
       x1="-16"
       y1="8"
       x2="-16"
       y2="88"
       id="linearGradient3767"
       xlink:href="#linearGradient3675"
       gradientUnits="userSpaceOnUse"
       gradientTransform="matrix(0,1,1,0,0,96)" />
    <linearGradient
       x1="26"
       y1="6"
       x2="26"
       y2="120.01754"
       id="linearGradient3839"
       xlink:href="#linearGradient8292"
       gradientUnits="userSpaceOnUse"
       gradientTransform="translate(-2)" />
    <linearGradient
       x1="26"
       y1="6"
       x2="26"
       y2="72.022263"
       id="linearGradient3843"
       xlink:href="#linearGradient8292"
       gradientUnits="userSpaceOnUse"
       gradientTransform="matrix(0.57142857,0,0,1,50.857143,0)" />
    <linearGradient
       x1="26"
       y1="6"
       x2="26"
       y2="72.022263"
       id="linearGradient3873"
       xlink:href="#linearGradient8292"
       gradientUnits="userSpaceOnUse"
       gradientTransform="matrix(0.23809524,0,0,1,47.190476,-96.000008)" />
    <radialGradient
       cx="48"
       cy="90.171875"
       r="42"
       fx="48"
       fy="90.171875"
       id="radialGradient3619"
       xlink:href="#linearGradient8292"
       gradientUnits="userSpaceOnUse"
       gradientTransform="matrix(1.1573129,0,0,0.99590774,-7.5510206,0.19713193)" />
    <linearGradient
       x1="36.357143"
       y1="6"
       x2="36.357143"
       y2="63.893143"
       id="linearGradient3188"
       xlink:href="#linearGradient8292"
       gradientUnits="userSpaceOnUse" />
    <linearGradient
       x1="64"
       y1="47"
       x2="82.835136"
       y2="47"
       id="linearGradient3976"
       xlink:href="#linearGradient8292"
       gradientUnits="userSpaceOnUse"
       gradientTransform="translate(4)" />
    <linearGradient
       inkscape:collect="always"
       xlink:href="#ButtonShadow"
       id="linearGradient9461"
       gradientUnits="userSpaceOnUse"
       gradientTransform="scale(1.0058652,0.994169)"
       x1="45.447727"
       y1="92.539597"
       x2="45.447727"
       y2="7.0165396" />
    <linearGradient
       inkscape:collect="always"
       xlink:href="#ButtonShadow"
       id="linearGradient9463"
       gradientUnits="userSpaceOnUse"
       gradientTransform="scale(1.0058652,0.994169)"
       x1="45.447727"
       y1="92.539597"
       x2="45.447727"
       y2="7.0165396" />
    <linearGradient
       inkscape:collect="always"
       xlink:href="#ButtonShadow"
       id="linearGradient9465"
       gradientUnits="userSpaceOnUse"
       gradientTransform="scale(1.0058652,0.994169)"
       x1="45.447727"
       y1="92.539597"
       x2="45.447727"
       y2="7.0165396" />
  </defs>
  <g
     id="layer3"
     style="display:inline">
    <path
       d="m 61.1875,0 c -0.397491,0.00825484 -0.785849,0.0286125 -1.15625,0.0625 -0.02924,0.0026749 -0.06474,-0.0027971 -0.09375,0 H 33.21875 33.125 c -1.168817,-0.08425875 -2.144846,0.30262546 -2.8125,0.875 -0.686847,0.5888286 -1.096907,1.3061036 -1.46875,1.90625 -0.371843,0.6001464 -0.722144,1.0499405 -1.03125,1.25 C 27.503394,4.2938095 27.197756,4.4085793 26.375,4.125 A 0.86455639,0.86455639 0 0 0 26.0625,4.0625 C 20.806668,4.1596955 15.48282,3.8461901 10.125,4.25 a 0.86455639,0.86455639 0 0 0 -0.09375,0.03125 c -5.3389451,0.9429563 -8.4564732,6.287908 -7.9375,11.375 0.00856,0.08388 -0.010568,0.166291 0,0.25 -0.099401,0.807972 -0.04588,1.671872 0.34375,2.4375 0.3070193,0.603296 0.919911,1.046175 1.625,1.3125 v 58.75 C 3.685918,78.547035 3.2587169,78.609988 3,78.875 2.5447434,79.341334 2.3123229,79.93342 2.1875,80.5 1.9378541,81.633159 2.0420181,82.823243 2.0625,83.625 h 0.03125 c -0.7324256,6.064203 4.4632331,11.901815 10.6875,11.3125 0.03195,-0.003 0.06174,0.0034 0.09375,0 24.014415,-0.03087 48.043005,0.04687 72.0625,-0.0625 a 0.86455639,0.86455639 0 0 0 0.0625,0 c 5.801203,-0.424193 9.548857,-6.157455 8.90625,-11.625 h 0.03125 c 0.0643,-0.825289 0.143136,-1.942787 -0.15625,-3 -0.149693,-0.528607 -0.423042,-1.051295 -0.875,-1.46875 -0.240781,-0.222399 -0.638664,-0.252905 -0.96875,-0.375 V 19.59375 C 92.314082,19.452965 92.741283,19.390012 93,19.125 c 0.455257,-0.466334 0.687677,-1.05842 0.8125,-1.625 0.242169,-1.099219 0.150535,-2.231748 0.125,-3.03125 -2.63e-4,-0.0082 2.44e-4,-0.02309 0,-0.03125 0.0015,-0.02141 -0.0013,-0.04112 0,-0.0625 C 94.325246,8.189796 88.38621,3.3250381 82.4375,4.09375 V 4.0625 H 67.71875 C 67.478888,2.8702525 66.946506,1.8620052 66.09375,1.25 65.027369,0.48468007 63.691055,0.14173763 62.40625,0.03125 61.991614,-0.00440686 61.584991,-0.00825484 61.1875,0 Z M 34,2 h 28 c 1.108,0 2,0.892 2,2 v 1 1 h 8 12 c 3.324,0 6,2.676 6,6 v 2 2 h -2 v 2 18 42 2 h 2 v 2 2 c 0,3.324 -2.676,6 -6,6 H 12 C 8.676,90 6,87.324 6,84 V 82 80 H 8 V 38 36 18 16 H 6 V 12 C 6,8.676 8.676,6 12,6 H 32 V 5 4 c 0,-1.108 0.892,-2 2,-2 z"
       inkscape:connector-curvature="0"
       id="path3823"
       style="display:inline;opacity:0.08;fill:url(#linearGradient9461);fill-opacity:1;fill-rule:nonzero;stroke:none" />
    <path
       d="m 61.15625,0.875 c -0.389872,0.005267 -0.761421,0.0274465 -1.125,0.0625 H 33.125 c -4.067307,-0.38300934 -3.074945,5.3636191 -7.03125,4 C 20.793683,5.035514 15.468506,4.7269794 10.1875,5.125 c -4.9158004,0.8682211 -7.8478547,5.951899 -7.25,10.6875 -0.2484777,1.39797 0.3327516,3.220116 2,3.25 v 59.875 c -2.3991624,0.149376 -2.0434216,2.956527 -2,4.65625 -0.7696646,5.585719 4.1170688,11.0707 9.84375,10.46875 C 36.829484,94.0313 60.891256,94.10949 84.9375,94 c 5.317933,-0.388856 8.813922,-5.757617 8.125,-10.8125 0.125234,-1.607312 0.201595,-4.150212 -2,-4.25 v -59.875 c 2.399162,-0.149376 2.043422,-2.956527 2,-4.65625 C 93.478,8.7260622 87.910878,4.1568448 82.4375,4.9375 H 67.0625 C 67.013517,1.6473822 63.885355,0.83813052 61.15625,0.875 Z M 34,2 h 28 c 1.108,0 2,0.892 2,2 v 1 1 h 8 12 c 3.324,0 6,2.676 6,6 v 2 2 h -2 v 2 18 42 2 h 2 v 2 2 c 0,3.324 -2.676,6 -6,6 H 12 C 8.676,90 6,87.324 6,84 V 82 80 H 8 V 38 36 18 16 H 6 V 12 C 6,8.676 8.676,6 12,6 H 32 V 5 4 c 0,-1.108 0.892,-2 2,-2 z"
       inkscape:connector-curvature="0"
       id="path3809"
       style="display:inline;opacity:0.1;fill:url(#linearGradient9463);fill-opacity:1;fill-rule:nonzero;stroke:none" />
    <path
       d="M 33.125,2 C 31.440008,2 30,3.3188068 30,5 v 1 h 2 V 5 4 C 32,2.892 32.892,2 34,2 Z M 62,2 c 1.108,0 2,0.892 2,2 v 1 1 h 2 V 5 C 66,3.3188068 64.559992,2 62.875,2 Z M 11.1875,6.03125 C 7.1540242,6.4410151 4,9.8586163 4,14 v 3 a 1.0052675,1.0052675 0 0 0 1,1 H 6 V 80 H 8 V 38 36 18 16 H 6 v -4 c 0,-3.11625 2.3421143,-5.662583 5.375,-5.96875 -0.06237,0.00487 -0.125538,-0.00629 -0.1875,0 z M 6,80 H 5 a 1.0052675,1.0052675 0 0 0 -1,1 v 4 c 0,4.417476 3.5825241,8 8,8 h 72 c 4.417476,0 8,-3.582524 8,-8 v -4 a 1.0052675,1.0052675 0 0 0 -1,-1 h -1 v 2 2 c 0,3.324 -2.676,6 -6,6 H 12 C 8.676,90 6,87.324 6,84 v -2 z m 84,0 V 18 h 1 a 1.0052675,1.0052675 0 0 0 1,-1 V 14 C 92,9.7949969 88.747496,6.3532496 84.625,6.03125 87.657886,6.337417 90,8.88375 90,12 v 2 2 h -2 v 2 18 42 2 z"
       inkscape:connector-curvature="0"
       id="path3800"
       style="display:inline;opacity:0.2;fill:url(#linearGradient9465);fill-opacity:1;fill-rule:nonzero;stroke:none" />
    <path
       d="M 32.15625,3.21875 C 31.465153,3.5480919 31,4.2184013 31,5 v 1 h 1 V 5 4 c 0,-0.277 0.05531,-0.5418125 0.15625,-0.78125 z m 31.6875,0 C 63.944688,3.4581875 64,3.723 64,4 v 1 1 h 1 V 5 C 65,4.2184013 64.534847,3.5480919 63.84375,3.21875 Z M 6.4375,9.75 C 5.5380109,10.927446 5,12.397277 5,14 v 3 H 7 V 80 H 8 V 38 36 18 16 H 6 V 12 C 6,11.203625 6.1581836,10.444095 6.4375,9.75 Z m 83.125,0 C 89.841816,10.444095 90,11.203625 90,12 v 2 2 h -2 v 2 18 42 2 h 1 V 17 h 2 V 14 C 91,12.397277 90.461989,10.927446 89.5625,9.75 Z M 5,81 v 4 c 0,3.878 3.122,7 7,7 h 72 c 3.878,0 7,-3.122 7,-7 v -4 h -1 v 1 2 c 0,3.324 -2.676,6 -6,6 H 12 C 8.676,90 6,87.324 6,84 v -2 -1 z"
       inkscape:connector-curvature="0"
       id="path2956"
       style="display:inline;opacity:0.3;fill:url(#linearGradient3825);fill-opacity:1;fill-rule:nonzero;stroke:none" />
    <path
       d="m 6,16 v 1 h 2 v -1 z m 82,0 v 1 h 2 V 16 Z M 6,84 v 1 c 0,3.324 2.676,6 6,6 h 72 c 3.324,0 6,-2.676 6,-6 v -1 c 0,3.324 -2.676,6 -6,6 H 12 C 8.676,90 6,87.324 6,84 Z"
       inkscape:connector-curvature="0"
       id="path3743"
       style="display:inline;opacity:0.45;fill:url(#linearGradient3794);fill-opacity:1;fill-rule:nonzero;stroke:none" />
  </g>
  <g
     id="layer4"
     style="display:inline">
    <path
       d="M 8,36 V 80 H 88 V 36 Z"
       inkscape:connector-curvature="0"
       id="rect3814"
       style="display:inline;fill:url(#radialGradient3901);fill-opacity:1;fill-rule:nonzero;stroke:none" />
    <path
       d="m 8,78 v 2 h 80 v -2 z"
       inkscape:connector-curvature="0"
       id="rect3845"
       style="opacity:0.6;fill:#338000;fill-opacity:1;stroke:none" />
    <path
       d="M 48,36 V 80 H 88 V 36 Z"
       inkscape:connector-curvature="0"
       id="path3856"
       style="display:inline;fill:url(#linearGradient3897);fill-opacity:1;fill-rule:nonzero;stroke:none" />
    <path
       d="m 8,36 v 2 h 80 v -2 z"
       inkscape:connector-curvature="0"
       id="rect3829"
       style="opacity:0.4;fill:#aad400;fill-opacity:1;stroke:none" />
    <path
       d="m 8,36 v 44 h 2 V 36 Z m 78,0 v 44 h 2 V 36 Z"
       inkscape:connector-curvature="0"
       id="rect3991"
       style="display:inline;opacity:0.3;fill:#aad400;fill-opacity:1;stroke:none" />
  </g>
  <g
     id="layer1"
     style="display:inline">
    <rect
       width="32"
       height="8.1000004"
       rx="2"
       ry="2"
       x="32"
       y="2"
       id="rect3769"
       style="fill:url(#linearGradient3777);fill-opacity:1;stroke:none" />
    <path
       d="M 8,16 V 80 H 88 V 16 Z"
       inkscape:connector-curvature="0"
       id="rect2419"
       style="fill:url(#linearGradient3925);fill-opacity:1;fill-rule:nonzero;stroke:none" />
    <path
       d="M 12,6 C 8.676,6 6,8.676 6,12 v 4 H 90 V 12 C 90,8.676 87.324,6 84,6 Z"
       inkscape:connector-curvature="0"
       id="rect3754"
       style="fill:url(#linearGradient3761);fill-opacity:1;fill-rule:nonzero;stroke:none" />
    <path
       d="M 12,90 C 8.676,90 6,87.324 6,84 v -4 h 84 v 4 c 0,3.324 -2.676,6 -6,6 z"
       inkscape:connector-curvature="0"
       id="path3765"
       style="fill:url(#linearGradient3767);fill-opacity:1;fill-rule:nonzero;stroke:none" />
    <path
       d="m 34,2 c -1.108,0 -2,0.892 -2,2 v 1 c 0,-1.108 0.892,-2 2,-2 h 28 c 1.108,0 2,0.892 2,2 V 4 C 64,2.892 63.108,2 62,2 Z"
       inkscape:connector-curvature="0"
       id="rect3779"
       style="opacity:0.5;fill:#ffffff;fill-opacity:1;stroke:none" />
    <rect
       width="32"
       height="1"
       x="32"
       y="5"
       id="rect3798"
       style="opacity:0.2;fill:#000000;fill-opacity:1;stroke:none" />
    <rect
       width="21"
       height="84.000008"
       x="14"
       y="6"
       id="rect3831"
       style="opacity:0.4;fill:url(#linearGradient3839);fill-opacity:1;stroke:none" />
    <rect
       width="12"
       height="84.000008"
       x="60"
       y="6"
       id="rect3841"
       style="opacity:0.2;fill:url(#linearGradient3843);fill-opacity:1;stroke:none" />
    <rect
       width="84"
       height="2"
       x="6"
       y="80"
       id="rect3847"
       style="display:inline;opacity:0.29;fill:#ffffff;fill-opacity:1;stroke:none" />
    <rect
       width="84"
       height="2"
       x="6"
       y="14"
       id="rect3854"
       style="display:inline;opacity:0.1;fill:#000000;fill-opacity:1;stroke:none" />
    <path
       d="m 8,16 v 2 h 80 v -2 z"
       inkscape:connector-curvature="0"
       id="rect3869"
       style="display:inline;opacity:0.1;fill:#000000;fill-opacity:1;stroke:none" />
    <rect
       width="5"
       height="84.000008"
       x="51"
       y="-90.000008"
       transform="scale(1,-1)"
       id="rect3871"
       style="opacity:0.1;fill:url(#linearGradient3873);fill-opacity:1;stroke:none" />
    <rect
       width="2"
       height="20"
       x="8"
       y="16"
       id="rect3987"
       style="opacity:0.4;fill:#ffffff;fill-opacity:1;stroke:none" />
    <rect
       width="2"
       height="20"
       x="86"
       y="16"
       id="rect3989"
       style="opacity:0.3;fill:#ffffff;fill-opacity:1;stroke:none" />
  </g>
  <g
     id="layer5"
     style="display:inline">
    <path
       d="M 10.15625,6.34375 C 9.8547231,6.440553 9.559795,6.547888 9.28125,6.6875 8.72416,6.966724 8.221197,7.353194 7.78125,7.78125 7.5612765,7.995278 7.3718839,8.223115 7.1875,8.46875 7.0031161,8.714385 6.8320918,8.976493 6.6875,9.25 6.5473802,9.515048 6.411365,9.774729 6.3125,10.0625 6.302142,10.09265 6.29113,10.12587 6.28125,10.15625 6.19079,10.434335 6.14245,10.735654 6.09375,11.03125 6.04135,11.3493 6,11.665279 6,12 v 2 2 H 7 V 13 11 C 7,10.635705 7.0521214,10.279012 7.125,9.9375 7.1483606,9.828031 7.1884177,9.731618 7.21875,9.625 7.2454455,9.530581 7.2494249,9.4357 7.28125,9.34375 7.288911,9.3218 7.30454,9.30306 7.3125,9.28125 7.3880752,9.071951 7.4927417,8.850956 7.59375,8.65625 7.6510225,8.548267 7.716487,8.446782 7.78125,8.34375 7.805304,8.30462 7.818661,8.25713 7.84375,8.21875 7.9378561,8.077785 8.0486711,7.942755 8.15625,7.8125 c 0.1525404,-0.185862 0.3220701,-0.369817 0.5,-0.53125 0.099219,-0.088888 0.2063272,-0.1692 0.3125,-0.25 0.1127274,-0.086487 0.223355,-0.1733 0.34375,-0.25 0.031457,-0.01999 0.061817,-0.0432 0.09375,-0.0625 0.00738,-0.0045 0.02384,0.0044 0.03125,0 0.2320391,-0.138728 0.4625482,-0.274778 0.71875,-0.375 z m 75.6875,0 c 0.256202,0.100222 0.486711,0.236272 0.71875,0.375 0.0074,0.0044 0.02385,-0.0045 0.03125,0 0.108182,0.065386 0.209929,0.1456 0.3125,0.21875 0.152409,0.109314 0.299114,0.218194 0.4375,0.34375 0.01127,0.0101 0.02008,0.02105 0.03125,0.03125 0.165609,0.153002 0.325576,0.32555 0.46875,0.5 0.107579,0.130255 0.21839,0.265285 0.3125,0.40625 0.06073,0.0929 0.1329,0.18404 0.1875,0.28125 0.04596,0.080046 0.08342,0.1672 0.125,0.25 0.08037,0.163801 0.15601,0.357511 0.21875,0.53125 0.0079,0.02181 0.02355,0.04055 0.03125,0.0625 0.06787,0.196092 0.1121,0.386857 0.15625,0.59375 C 88.94788,10.279012 89,10.635705 89,11 v 2 3 h 1 v -2 -2 c 0,-0.334721 -0.04135,-0.6507 -0.09375,-0.96875 -0.0487,-0.295596 -0.09704,-0.596915 -0.1875,-0.875 C 89.70883,10.12524 89.69791,10.09328 89.6875,10.0625 89.588635,9.774729 89.45262,9.515048 89.3125,9.25 89.167908,8.976493 88.996884,8.714385 88.8125,8.46875 88.628116,8.223115 88.438723,7.995278 88.21875,7.78125 87.778803,7.353194 87.27584,6.966724 86.71875,6.6875 86.440205,6.547888 86.145277,6.44055 85.84375,6.34375 Z M 6,80 v 2 2 c 0,3.324 2.676,6 6,6 h 72 c 3.324,0 6,-2.676 6,-6 v -2 -2 h -1 v 1 2 c 0,2.781848 -2.218152,5 -5,5 H 82 14 12 C 9.2181517,88 7,85.781848 7,83 v -2 -1 z"
       inkscape:connector-curvature="0"
       id="path3615"
       style="display:inline;opacity:0.2;fill:url(#radialGradient3619);fill-opacity:1;fill-rule:nonzero;stroke:none" />
    <path
       d="M 12,6 C 8.676,6 6,8.676 6,12 v 2 2 H 7 V 15 13 C 7,10.218152 9.2181517,8 12,8 h 2 68 2 c 2.781848,0 5,2.218152 5,5 v 2 1 h 1 V 14 12 C 90,8.676 87.324,6 84,6 Z M 6,80 v 2 2 c 0,0.334721 0.04135,0.6507 0.09375,0.96875 0.0487,0.295596 0.09704,0.596915 0.1875,0.875 0.00988,0.03038 0.020892,0.0636 0.03125,0.09375 0.098865,0.287771 0.2348802,0.547452 0.375,0.8125 0.1445918,0.273507 0.3156161,0.535615 0.5,0.78125 0.1843839,0.245635 0.3737765,0.473472 0.59375,0.6875 0.439947,0.428056 0.94291,0.814526 1.5,1.09375 0.278545,0.139612 0.5734731,0.246947 0.875,0.34375 -0.2562018,-0.100222 -0.4867109,-0.236272 -0.71875,-0.375 -0.00741,-0.0044 -0.023866,0.0045 -0.03125,0 -0.031933,-0.0193 -0.062293,-0.04251 -0.09375,-0.0625 -0.120395,-0.0767 -0.2310226,-0.163513 -0.34375,-0.25 -0.1061728,-0.0808 -0.2132809,-0.161112 -0.3125,-0.25 C 8.4783201,88.557317 8.3087904,88.373362 8.15625,88.1875 8.0486711,88.057245 7.9378561,87.922215 7.84375,87.78125 7.818661,87.74287 7.805304,87.69538 7.78125,87.65625 7.716487,87.553218 7.6510225,87.451733 7.59375,87.34375 7.4927417,87.149044 7.3880752,86.928049 7.3125,86.71875 7.30454,86.69694 7.288911,86.6782 7.28125,86.65625 7.2494249,86.5643 7.2454455,86.469419 7.21875,86.375 7.1884177,86.268382 7.1483606,86.171969 7.125,86.0625 7.0521214,85.720988 7,85.364295 7,85 v -2 -3 z m 83,0 v 3 2 c 0,0.364295 -0.05212,0.720988 -0.125,1.0625 -0.04415,0.206893 -0.08838,0.397658 -0.15625,0.59375 -0.0077,0.02195 -0.0233,0.04069 -0.03125,0.0625 -0.06274,0.173739 -0.138383,0.367449 -0.21875,0.53125 -0.04158,0.0828 -0.07904,0.169954 -0.125,0.25 -0.0546,0.09721 -0.126774,0.18835 -0.1875,0.28125 -0.09411,0.140965 -0.204921,0.275995 -0.3125,0.40625 -0.143174,0.17445 -0.303141,0.346998 -0.46875,0.5 -0.01117,0.0102 -0.01998,0.02115 -0.03125,0.03125 -0.138386,0.125556 -0.285091,0.234436 -0.4375,0.34375 -0.102571,0.07315 -0.204318,0.153364 -0.3125,0.21875 -0.0074,0.0045 -0.02384,-0.0044 -0.03125,0 -0.232039,0.138728 -0.462548,0.274778 -0.71875,0.375 0.301527,-0.0968 0.596455,-0.204138 0.875,-0.34375 0.55709,-0.279224 1.060053,-0.665694 1.5,-1.09375 0.219973,-0.214028 0.409366,-0.441865 0.59375,-0.6875 0.184384,-0.245635 0.355408,-0.507743 0.5,-0.78125 0.14012,-0.265048 0.276135,-0.524729 0.375,-0.8125 0.01041,-0.03078 0.02133,-0.06274 0.03125,-0.09375 0.09046,-0.278085 0.1388,-0.579404 0.1875,-0.875 C 89.95865,84.6507 90,84.334721 90,84 v -2 -2 z"
       inkscape:connector-curvature="0"
       id="rect3728"
       style="display:inline;opacity:0.2;fill:url(#linearGradient3188);fill-opacity:1;fill-rule:nonzero;stroke:none" />
  </g>
  <g
     id="layer6"
     style="display:inline">
    <path
       d="m 68,22 v 2 h 16 v -2 z m 0,8 v 2 h 16 v -2 z m 0,8 v 2 h 16 v -2 z m 0,8 v 2 h 16 v -2 z m 0,8 v 2 h 16 v -2 z m 0,8 v 2 h 16 v -2 z m 0,8 v 2 h 16 v -2 z"
       inkscape:connector-curvature="0"
       id="rect3955"
       style="opacity:0.8;fill:url(#linearGradient3976);fill-opacity:1;stroke:none" />
    <path
       d="M 57.980764,44 V 56 H 64 L 57.980764,72 V 60 h -6.019235 z"
       inkscape:connector-curvature="0"
       id="path3887"
       style="display:inline;opacity:0.8;fill:#ffffff;stroke:none" />
  </g>
</svg>
