<?xml version="1.0" encoding="UTF-8" standalone="no"?>
<!-- Created with Inkscape (http://www.inkscape.org/) -->

<svg
   version="1.0"
   width="96"
   height="96"
   id="svg2408"
   sodipodi:docname="github-desktop.svg"
   inkscape:version="1.2.2 (b0a8486541, 2022-12-01)"
   xmlns:inkscape="http://www.inkscape.org/namespaces/inkscape"
   xmlns:sodipodi="http://sodipodi.sourceforge.net/DTD/sodipodi-0.dtd"
   xmlns:xlink="http://www.w3.org/1999/xlink"
   xmlns="http://www.w3.org/2000/svg"
   xmlns:svg="http://www.w3.org/2000/svg"
   xmlns:rdf="http://www.w3.org/1999/02/22-rdf-syntax-ns#"
   xmlns:cc="http://creativecommons.org/ns#"
   xmlns:dc="http://purl.org/dc/elements/1.1/">
  <sodipodi:namedview
     id="namedview24059"
     pagecolor="#ffffff"
     bordercolor="#000000"
     borderopacity="0.25"
     inkscape:showpageshadow="2"
     inkscape:pageopacity="0.0"
     inkscape:pagecheckerboard="0"
     inkscape:deskcolor="#d1d1d1"
     showgrid="false"
     inkscape:zoom="10.697917"
     inkscape:cx="25.425511"
     inkscape:cy="45.289192"
     inkscape:current-layer="svg2408" />
  <defs
     id="defs2410">
    <linearGradient
       id="linearGradient3729">
      <stop
         id="stop3731"
         style="stop-color:#1c59ad;stop-opacity:1"
         offset="0" />
      <stop
         id="stop3733"
         style="stop-color:#377ad6;stop-opacity:1"
         offset="1" />
    </linearGradient>
    <linearGradient
       x1="45.447727"
       y1="92.539597"
       x2="45.447727"
       y2="7.0165396"
       id="ButtonShadow"
       gradientUnits="userSpaceOnUse"
       gradientTransform="scale(1.0058652,0.994169)">
      <stop
         id="stop3750"
         style="stop-color:#000000;stop-opacity:1"
         offset="0" />
      <stop
         id="stop3752"
         style="stop-color:#000000;stop-opacity:0.58823532"
         offset="1" />
    </linearGradient>
    <linearGradient
       id="linearGradient3737">
      <stop
         id="stop3739"
         style="stop-color:#ffffff;stop-opacity:1"
         offset="0" />
      <stop
         id="stop3741"
         style="stop-color:#ffffff;stop-opacity:0"
         offset="1" />
    </linearGradient>
    <linearGradient
       id="linearGradient3700">
      <stop
         id="stop3702"
         style="stop-color:#e6e6e6;stop-opacity:1"
         offset="0" />
      <stop
         id="stop3704"
         style="stop-color:#f5f5f5;stop-opacity:1"
         offset="1" />
    </linearGradient>
    <linearGradient
       x1="48"
       y1="90"
       x2="48"
       y2="5.9877172"
       id="linearGradient3706"
       xlink:href="#linearGradient3700"
       gradientUnits="userSpaceOnUse" />
    <filter
       color-interpolation-filters="sRGB"
       id="filter3174"
       x="-0.047720931"
       y="-0.048282354"
       width="1.0954419"
       height="1.0965647">
      <feGaussianBlur
         stdDeviation="1.71"
         id="feGaussianBlur3176" />
    </filter>
    <linearGradient
       x1="36.357143"
       y1="6"
       x2="36.357143"
       y2="63.893143"
       id="linearGradient3188"
       xlink:href="#linearGradient3737"
       gradientUnits="userSpaceOnUse" />
    <linearGradient
       x1="45.447727"
       y1="92.539597"
       x2="45.447727"
       y2="7.0165396"
       id="ButtonShadow-0"
       gradientUnits="userSpaceOnUse"
       gradientTransform="matrix(1.0058652,0,0,0.994169,100,0)">
      <stop
         id="stop3750-8"
         style="stop-color:#000000;stop-opacity:1"
         offset="0" />
      <stop
         id="stop3752-5"
         style="stop-color:#000000;stop-opacity:0.58823532"
         offset="1" />
    </linearGradient>
    <linearGradient
       x1="32.251034"
       y1="6.1317081"
       x2="32.251034"
       y2="90.238609"
       id="linearGradient3780"
       xlink:href="#ButtonShadow-0"
       gradientUnits="userSpaceOnUse"
       gradientTransform="matrix(1.0238095,0,0,1.0119048,-1.1428571,-98.071429)" />
    <linearGradient
       x1="32.251034"
       y1="6.1317081"
       x2="32.251034"
       y2="90.238609"
       id="linearGradient3772"
       xlink:href="#ButtonShadow-0"
       gradientUnits="userSpaceOnUse"
       gradientTransform="matrix(1.0238095,0,0,1.0119048,-1.1428571,-98.071429)" />
    <linearGradient
       x1="32.251034"
       y1="6.1317081"
       x2="32.251034"
       y2="90.238609"
       id="linearGradient3725"
       xlink:href="#ButtonShadow-0"
       gradientUnits="userSpaceOnUse"
       gradientTransform="matrix(1.0238095,0,0,1.0119048,-1.1428571,-98.071429)" />
    <linearGradient
       x1="32.251034"
       y1="6.1317081"
       x2="32.251034"
       y2="90.238609"
       id="linearGradient3721"
       xlink:href="#ButtonShadow-0"
       gradientUnits="userSpaceOnUse"
       gradientTransform="translate(0,-97)" />
    <linearGradient
       x1="32.251034"
       y1="6.1317081"
       x2="32.251034"
       y2="90.238609"
       id="linearGradient3760"
       xlink:href="#ButtonShadow-0"
       gradientUnits="userSpaceOnUse"
       gradientTransform="matrix(1.0238095,0,0,1.0119048,-1.1428571,-98.071429)" />
    <linearGradient
       id="linearGradient3737-0">
      <stop
         id="stop3739-6"
         style="stop-color:#ffffff;stop-opacity:1"
         offset="0" />
      <stop
         id="stop3741-0"
         style="stop-color:#ffffff;stop-opacity:0"
         offset="1" />
    </linearGradient>
    <radialGradient
       cx="48"
       cy="90.171875"
       r="42"
       fx="48"
       fy="90.171875"
       id="radialGradient2903"
       xlink:href="#linearGradient3737-0"
       gradientUnits="userSpaceOnUse"
       gradientTransform="matrix(1.1573129,0,0,0.99590774,-7.551021,0.1971319)" />
    <clipPath
       id="clipPath3782">
      <path
         d="m -98,6 c -3.324,0 -6,2.676 -6,6 l 0,72 c 0,3.324 2.676,6 6,6 l 72,0 c 3.324,0 6,-2.676 6,-6 l 0,-72 c 0,-3.324 -2.676,-6 -6,-6 l -72,0 z m 59.0625,12 C -38.336494,17.9909 -38,18.03125 -38,18.03125 l 0,12.0625 C -50.051065,30.305506 -53,42.0625 -53,42.0625 l 9.0625,0 0,12.0625 -14.09375,0 C -66.507844,80.276885 -86,77.9375 -86,77.9375 l 0,-12.0625 c 0,0 12.376145,2.298313 18.6875,-20.75 6.908061,-25.227422 24.167961,-27.061294 28.375,-27.125 z"
         inkscape:connector-curvature="0"
         id="path3784"
         style="fill:#ff00ff;fill-opacity:1;fill-rule:nonzero;stroke:none" />
    </clipPath>
    <filter
       x="-0.18283333"
       y="-0.14622227"
       width="1.3656667"
       height="1.2924143"
       color-interpolation-filters="sRGB"
       id="filter3786">
      <feGaussianBlur
         id="feGaussianBlur3788"
         stdDeviation="3.24" />
    </filter>
    <linearGradient
       x1="46.906918"
       y1="75.471306"
       x2="46.906918"
       y2="36.246487"
       id="linearGradient3745"
       xlink:href="#linearGradient3729"
       gradientUnits="userSpaceOnUse"
       gradientTransform="translate(-2)" />
    <linearGradient
       id="linearGradient3737-9">
      <stop
         id="stop3739-2"
         style="stop-color:#ffffff;stop-opacity:1"
         offset="0" />
      <stop
         id="stop3741-1"
         style="stop-color:#ffffff;stop-opacity:0"
         offset="1" />
    </linearGradient>
    <clipPath
       id="clipPath3613">
      <rect
         width="84"
         height="84"
         rx="6"
         ry="6"
         x="6"
         y="6"
         id="rect3615"
         style="fill:#ffffff;fill-opacity:1;fill-rule:nonzero;stroke:none" />
    </clipPath>
    <filter
       x="-0.19578789"
       y="-0.19578789"
       width="1.3915758"
       height="1.3915758"
       color-interpolation-filters="sRGB"
       id="filter3794">
      <feGaussianBlur
         id="feGaussianBlur3796"
         stdDeviation="5.28" />
    </filter>
    <linearGradient
       x1="48"
       y1="20.220806"
       x2="48"
       y2="138.66119"
       id="linearGradient4186"
       xlink:href="#linearGradient3737-9"
       gradientUnits="userSpaceOnUse" />
    <linearGradient
       id="linearGradient2660">
      <stop
         style="stop-color:#edeeec;stop-opacity:1;"
         offset="0"
         id="stop2662" />
      <stop
         style="stop-color:#babdb6;stop-opacity:1;"
         offset="1"
         id="stop2664" />
    </linearGradient>
    <linearGradient
       id="linearGradient15653">
      <stop
         style="stop-color:#f0f1ee;stop-opacity:1;"
         offset="0"
         id="stop15655" />
      <stop
         style="stop-color:#d5d9d1;stop-opacity:1;"
         offset="1"
         id="stop15657" />
    </linearGradient>
    <filter
       inkscape:collect="always"
       style="color-interpolation-filters:sRGB"
       id="filter1862"
       x="-0.23223761"
       y="-0.46447522"
       width="1.4644752"
       height="1.9289504">
      <feGaussianBlur
         inkscape:collect="always"
         stdDeviation="3.5238187"
         id="feGaussianBlur1864" />
    </filter>
    <linearGradient
       inkscape:collect="always"
       xlink:href="#linearGradient1625"
       id="linearGradient1627"
       x1="48.081356"
       y1="15.796597"
       x2="48.081356"
       y2="82.527939"
       gradientUnits="userSpaceOnUse" />
    <linearGradient
       inkscape:collect="always"
       id="linearGradient1625">
      <stop
         style="stop-color:#ffffff;stop-opacity:1;"
         offset="0.33791456"
         id="stop1621" />
      <stop
         style="stop-color:#ffffff;stop-opacity:0;"
         offset="0.94301808"
         id="stop1623" />
    </linearGradient>
    <linearGradient
       inkscape:collect="always"
       xlink:href="#linearGradient1700"
       id="linearGradient1702"
       x1="48.999447"
       y1="86.513115"
       x2="48.999447"
       y2="11.392168"
       gradientUnits="userSpaceOnUse"
       gradientTransform="matrix(0.92973581,0,0,0.92973581,2.836577,3.491702)" />
    <linearGradient
       inkscape:collect="always"
       id="linearGradient1700">
      <stop
         style="stop-color:#e3e3e8;stop-opacity:1;"
         offset="0"
         id="stop1696" />
      <stop
         style="stop-color:#e2e3e9;stop-opacity:1;"
         offset="1"
         id="stop1698" />
    </linearGradient>
    <linearGradient
       inkscape:collect="always"
       xlink:href="#linearGradient1636"
       id="linearGradient1638"
       x1="47.774918"
       y1="23.834661"
       x2="47.774918"
       y2="69.749138"
       gradientUnits="userSpaceOnUse"
       gradientTransform="matrix(1,0,0,1.1105519,0,-7.7175331)" />
    <linearGradient
       inkscape:collect="always"
       id="linearGradient1636">
      <stop
         style="stop-color:#000000;stop-opacity:1;"
         offset="0.26639867"
         id="stop1632" />
      <stop
         style="stop-color:#000000;stop-opacity:0;"
         offset="1"
         id="stop1634" />
    </linearGradient>
    <linearGradient
       x1="48"
       y1="90"
       x2="48"
       y2="5.9877172"
       id="linearGradient3706-3"
       xlink:href="#linearGradient3700-6"
       gradientUnits="userSpaceOnUse" />
    <linearGradient
       id="linearGradient3700-6">
      <stop
         id="stop3702-7"
         style="stop-color:#8034a9;stop-opacity:1;"
         offset="0" />
      <stop
         id="stop3704-5"
         style="stop-color:#9b34a9;stop-opacity:1;"
         offset="1" />
    </linearGradient>
    <radialGradient
       cx="48"
       cy="90.171875"
       r="42"
       fx="48"
       fy="90.171875"
       id="radialGradient2903-6"
       xlink:href="#linearGradient3737"
       gradientUnits="userSpaceOnUse"
       gradientTransform="matrix(1.1573129,0,0,0.99590774,-7.551021,0.1971319)" />
    <linearGradient
       inkscape:collect="always"
       xlink:href="#ButtonShadow-0"
       id="linearGradient1689"
       gradientUnits="userSpaceOnUse"
       gradientTransform="matrix(1.0238095,0,0,1.0119048,-1.1428571,-98.071429)"
       x1="32.251034"
       y1="6.1317081"
       x2="32.251034"
       y2="90.238609" />
    <linearGradient
       inkscape:collect="always"
       xlink:href="#ButtonShadow-0"
       id="linearGradient1691"
       gradientUnits="userSpaceOnUse"
       gradientTransform="matrix(1.0238095,0,0,1.0119048,-1.1428571,-98.071429)"
       x1="32.251034"
       y1="6.1317081"
       x2="32.251034"
       y2="90.238609" />
    <linearGradient
       inkscape:collect="always"
       xlink:href="#ButtonShadow-0"
       id="linearGradient1693"
       gradientUnits="userSpaceOnUse"
       gradientTransform="matrix(1.0238095,0,0,1.0119048,-1.1428571,-98.071429)"
       x1="32.251034"
       y1="6.1317081"
       x2="32.251034"
       y2="90.238609" />
    <linearGradient
       inkscape:collect="always"
       xlink:href="#ButtonShadow-0"
       id="linearGradient1695"
       gradientUnits="userSpaceOnUse"
       gradientTransform="matrix(1.0238095,0,0,1.0119048,-1.1428571,-98.071429)"
       x1="32.251034"
       y1="6.1317081"
       x2="32.251034"
       y2="90.238609" />
    <linearGradient
       inkscape:collect="always"
       xlink:href="#ButtonShadow-0"
       id="linearGradient1697"
       gradientUnits="userSpaceOnUse"
       gradientTransform="translate(0,-97)"
       x1="32.251034"
       y1="6.1317081"
       x2="32.251034"
       y2="90.238609" />
    <linearGradient
       inkscape:collect="always"
       xlink:href="#linearGradient3737"
       id="linearGradient1699"
       gradientUnits="userSpaceOnUse"
       x1="36.357143"
       y1="6"
       x2="36.357143"
       y2="63.893143" />
  </defs>
  <metadata
     id="metadata2413">
    <rdf:RDF>
      <cc:Work
         rdf:about="">
        <dc:format>image/svg+xml</dc:format>
        <dc:type
           rdf:resource="http://purl.org/dc/dcmitype/StillImage" />
      </cc:Work>
    </rdf:RDF>
  </metadata>
  <g
     id="layer7-7"
     style="display:inline">
    <path
       d="m 12,-95.03125 c -5.5110903,0 -10.03125,4.52016 -10.03125,10.03125 v 71 c 0,5.5110902 4.5201598,10.03125 10.03125,10.03125 h 72 c 5.51109,0 10.03125,-4.5201597 10.03125,-10.03125 v -71 c 0,-5.51109 -4.52016,-10.03125 -10.03125,-10.03125 z"
       transform="scale(1,-1)"
       id="path3786-0"
       style="display:inline;opacity:0.08;fill:url(#linearGradient1689);fill-opacity:1;fill-rule:nonzero;stroke:none" />
    <path
       d="m 12,-94.03125 c -4.971633,0 -9.03125,4.059617 -9.03125,9.03125 v 71 c 0,4.9716329 4.0596171,9.03125 9.03125,9.03125 h 72 c 4.971633,0 9.03125,-4.059617 9.03125,-9.03125 v -71 c 0,-4.971633 -4.059617,-9.03125 -9.03125,-9.03125 z"
       transform="scale(1,-1)"
       id="path3778-9"
       style="display:inline;opacity:0.1;fill:url(#linearGradient1691);fill-opacity:1;fill-rule:nonzero;stroke:none" />
    <path
       d="m 12,-93 c -4.4091333,0 -8,3.590867 -8,8 v 71 c 0,4.4091333 3.5908667,8 8,8 h 72 c 4.409133,0 8,-3.5908667 8,-8 v -71 c 0,-4.409133 -3.590867,-8 -8,-8 z"
       transform="scale(1,-1)"
       id="path3770-3"
       style="display:inline;opacity:0.2;fill:url(#linearGradient1693);fill-opacity:1;fill-rule:nonzero;stroke:none" />
    <rect
       width="86"
       height="85"
       rx="7"
       ry="7"
       x="5"
       y="-92"
       transform="scale(1,-1)"
       id="rect3723-6"
       style="display:inline;opacity:0.3;fill:url(#linearGradient1695);fill-opacity:1;fill-rule:nonzero;stroke:none" />
    <rect
       width="84"
       height="84"
       rx="6"
       ry="6"
       x="6"
       y="-91"
       transform="scale(1,-1)"
       id="rect3716-0"
       style="display:inline;opacity:0.45;fill:url(#linearGradient1697);fill-opacity:1;fill-rule:nonzero;stroke:none" />
  </g>
  <g
     id="layer1-6"
     style="display:inline">
    <rect
       width="84"
       height="84"
       rx="6"
       ry="6"
       x="6"
       y="6"
       id="rect2419-2"
       style="fill:url(#linearGradient3706-3);fill-opacity:1;fill-rule:nonzero;stroke:none" />
    <path
       d="M 12,6 C 8.676,6 6,8.676 6,12 v 2 68 2 c 0,0.334721 0.04135,0.6507 0.09375,0.96875 0.0487,0.295596 0.09704,0.596915 0.1875,0.875 0.00988,0.03038 0.020892,0.0636 0.03125,0.09375 0.098865,0.287771 0.2348802,0.547452 0.375,0.8125 0.1445918,0.273507 0.3156161,0.535615 0.5,0.78125 0.1843839,0.245635 0.3737765,0.473472 0.59375,0.6875 0.439947,0.428056 0.94291,0.814526 1.5,1.09375 0.278545,0.139612 0.5734731,0.246947 0.875,0.34375 -0.2562018,-0.100222 -0.4867109,-0.236272 -0.71875,-0.375 -0.00741,-0.0044 -0.023866,0.0045 -0.03125,0 -0.031933,-0.0193 -0.062293,-0.04251 -0.09375,-0.0625 -0.120395,-0.0767 -0.2310226,-0.163513 -0.34375,-0.25 -0.1061728,-0.0808 -0.2132809,-0.161112 -0.3125,-0.25 C 8.4783201,88.557317 8.3087904,88.373362 8.15625,88.1875 8.0486711,88.057245 7.9378561,87.922215 7.84375,87.78125 7.818661,87.74287 7.805304,87.69538 7.78125,87.65625 7.716487,87.553218 7.6510225,87.451733 7.59375,87.34375 7.4927417,87.149044 7.3880752,86.928049 7.3125,86.71875 7.30454,86.69694 7.288911,86.6782 7.28125,86.65625 7.2494249,86.5643 7.2454455,86.469419 7.21875,86.375 7.1884177,86.268382 7.1483606,86.171969 7.125,86.0625 7.0521214,85.720988 7,85.364295 7,85 V 83 15 13 C 7,10.218152 9.2181517,8 12,8 h 2 68 2 c 2.781848,0 5,2.218152 5,5 v 2 68 2 c 0,0.364295 -0.05212,0.720988 -0.125,1.0625 -0.04415,0.206893 -0.08838,0.397658 -0.15625,0.59375 -0.0077,0.02195 -0.0233,0.04069 -0.03125,0.0625 -0.06274,0.173739 -0.138383,0.367449 -0.21875,0.53125 -0.04158,0.0828 -0.07904,0.169954 -0.125,0.25 -0.0546,0.09721 -0.126774,0.18835 -0.1875,0.28125 -0.09411,0.140965 -0.204921,0.275995 -0.3125,0.40625 -0.143174,0.17445 -0.303141,0.346998 -0.46875,0.5 -0.01117,0.0102 -0.01998,0.02115 -0.03125,0.03125 -0.138386,0.125556 -0.285091,0.234436 -0.4375,0.34375 -0.102571,0.07315 -0.204318,0.153364 -0.3125,0.21875 -0.0074,0.0045 -0.02384,-0.0044 -0.03125,0 -0.232039,0.138728 -0.462548,0.274778 -0.71875,0.375 0.301527,-0.0968 0.596455,-0.204138 0.875,-0.34375 0.55709,-0.279224 1.060053,-0.665694 1.5,-1.09375 0.219973,-0.214028 0.409366,-0.441865 0.59375,-0.6875 0.184384,-0.245635 0.355408,-0.507743 0.5,-0.78125 0.14012,-0.265048 0.276135,-0.524729 0.375,-0.8125 0.01041,-0.03078 0.02133,-0.06274 0.03125,-0.09375 0.09046,-0.278085 0.1388,-0.579404 0.1875,-0.875 C 89.95865,84.6507 90,84.334721 90,84 V 82 14 12 C 90,8.676 87.324,6 84,6 Z"
       inkscape:connector-curvature="0"
       id="rect3728-6"
       style="opacity:0.5;fill:url(#linearGradient1699);fill-opacity:1;fill-rule:nonzero;stroke:none" />
    <path
       d="M 12,90 C 8.676,90 6,87.324 6,84 V 82 14 12 c 0,-0.334721 0.04135,-0.6507 0.09375,-0.96875 0.0487,-0.295596 0.09704,-0.596915 0.1875,-0.875 C 6.29113,10.12587 6.302142,10.09265 6.3125,10.0625 6.411365,9.774729 6.5473802,9.515048 6.6875,9.25 6.8320918,8.976493 7.0031161,8.714385 7.1875,8.46875 7.3718839,8.223115 7.5612765,7.995278 7.78125,7.78125 8.221197,7.353194 8.72416,6.966724 9.28125,6.6875 9.559795,6.547888 9.8547231,6.440553 10.15625,6.34375 9.9000482,6.443972 9.6695391,6.580022 9.4375,6.71875 c -0.00741,0.0044 -0.023866,-0.0045 -0.03125,0 -0.031933,0.0193 -0.062293,0.04251 -0.09375,0.0625 -0.120395,0.0767 -0.2310226,0.163513 -0.34375,0.25 -0.1061728,0.0808 -0.2132809,0.161112 -0.3125,0.25 C 8.4783201,7.442683 8.3087904,7.626638 8.15625,7.8125 8.0486711,7.942755 7.9378561,8.077785 7.84375,8.21875 7.818661,8.25713 7.805304,8.30462 7.78125,8.34375 7.716487,8.446782 7.6510225,8.548267 7.59375,8.65625 7.4927417,8.850956 7.3880752,9.071951 7.3125,9.28125 7.30454,9.30306 7.288911,9.3218 7.28125,9.34375 7.2494249,9.4357 7.2454455,9.530581 7.21875,9.625 7.1884177,9.731618 7.1483606,9.828031 7.125,9.9375 7.0521214,10.279012 7,10.635705 7,11 v 2 68 2 c 0,2.781848 2.2181517,5 5,5 h 2 68 2 c 2.781848,0 5,-2.218152 5,-5 V 81 13 11 C 89,10.635705 88.94788,10.279012 88.875,9.9375 88.83085,9.730607 88.78662,9.539842 88.71875,9.34375 88.71105,9.3218 88.69545,9.30306 88.6875,9.28125 88.62476,9.107511 88.549117,8.913801 88.46875,8.75 88.42717,8.6672 88.38971,8.580046 88.34375,8.5 88.28915,8.40279 88.216976,8.31165 88.15625,8.21875 88.06214,8.077785 87.951329,7.942755 87.84375,7.8125 87.700576,7.63805 87.540609,7.465502 87.375,7.3125 87.36383,7.3023 87.35502,7.29135 87.34375,7.28125 87.205364,7.155694 87.058659,7.046814 86.90625,6.9375 86.803679,6.86435 86.701932,6.784136 86.59375,6.71875 c -0.0074,-0.0045 -0.02384,0.0044 -0.03125,0 -0.232039,-0.138728 -0.462548,-0.274778 -0.71875,-0.375 0.301527,0.0968 0.596455,0.204138 0.875,0.34375 0.55709,0.279224 1.060053,0.665694 1.5,1.09375 0.219973,0.214028 0.409366,0.441865 0.59375,0.6875 0.184384,0.245635 0.355408,0.507743 0.5,0.78125 0.14012,0.265048 0.276135,0.524729 0.375,0.8125 0.01041,0.03078 0.02133,0.06274 0.03125,0.09375 0.09046,0.278085 0.1388,0.579404 0.1875,0.875 C 89.95865,11.3493 90,11.665279 90,12 v 2 68 2 c 0,3.324 -2.676,6 -6,6 z"
       inkscape:connector-curvature="0"
       id="path3615-1"
       style="display:inline;opacity:0.3;fill:url(#radialGradient2903-6);fill-opacity:1;fill-rule:nonzero;stroke:none" />
  </g>
  <ellipse
     style="opacity:0.188331;fill:url(#linearGradient1638);fill-opacity:1;stroke-width:5.35869;stroke-linecap:round"
     id="path1629"
     cx="47.982639"
     cy="44.077324"
     rx="23.232885"
     ry="25.731808" />
  <path
     id="path2536"
     style="display:inline;opacity:0.25;fill:#000000;fill-opacity:1;stroke-width:0.422136;stroke-linecap:round"
     sodipodi:type="inkscape:offset"
     inkscape:radius="0.5991056"
     inkscape:original="M 48.103516 14.455078 C 46.287123 14.445847 44.251991 14.519994 43.210938 14.660156 C 32.284684 16.130378 23.184213 21.93282 17.345703 31.154297 C 16.957584 31.767319 16.180126 33.200958 15.617188 34.339844 C 13.799376 38.017551 12.795395 41.388322 12.181641 45.884766 C 11.970255 47.433339 12.006414 52.848288 12.238281 54.476562 C 13.07318 60.340682 15.073442 65.540572 18.277344 70.167969 C 22.304678 75.984692 28.102504 80.545572 34.734375 83.113281 C 36.547386 83.815223 37.067603 83.87434 37.876953 83.472656 C 38.079839 83.371964 38.341227 83.115426 38.470703 82.888672 C 38.697521 82.491447 38.703446 82.415693 38.705078 78.9375 C 38.706278 76.109921 38.678708 75.390625 38.572266 75.390625 C 38.498766 75.390625 37.904526 75.465178 37.251953 75.556641 C 35.600042 75.78812 32.781458 75.712603 31.613281 75.404297 C 29.862429 74.942257 28.318886 73.915422 27.484375 72.658203 C 27.279235 72.349135 26.946151 71.706925 26.746094 71.232422 C 26.287877 70.145595 25.590513 68.928796 24.873047 67.966797 C 24.135178 66.977451 23.704806 66.559587 22.878906 66.029297 C 22.103182 65.531204 21.416016 64.825441 21.416016 64.527344 C 21.416016 64.193287 21.8848 63.921008 22.587891 63.845703 C 23.862049 63.709264 25.213745 64.167333 26.458984 65.158203 C 27.249206 65.786984 27.859365 66.498234 28.710938 67.78125 C 30.891835 71.067078 34.035129 72.082624 37.916016 70.753906 C 38.366852 70.599597 38.772896 70.403765 38.816406 70.318359 C 38.859916 70.232889 38.990781 69.7515 39.107422 69.248047 C 39.375683 68.090078 39.91462 66.993679 40.587891 66.238281 C 40.876883 65.914062 41.095338 65.637826 41.074219 65.623047 C 41.053089 65.607507 40.429715 65.512387 39.689453 65.410156 C 32.765219 64.453333 28.363802 61.426024 26.285156 56.193359 C 25.630051 54.544229 25.208847 52.44642 25.033203 49.951172 C 24.759052 46.056919 25.430338 43.082387 27.1875 40.396484 C 27.466902 39.969407 27.892643 39.392312 28.134766 39.113281 C 28.458659 38.739988 28.559576 38.548622 28.513672 38.388672 C 28.019526 36.666723 27.990836 36.43849 27.998047 34.339844 C 28.004247 32.363932 28.019196 32.21426 28.324219 31.078125 C 28.499988 30.423269 28.718988 29.71353 28.810547 29.5 L 28.976562 29.111328 L 29.830078 29.111328 C 31.779294 29.112928 34.568965 30.177007 37.572266 32.064453 C 38.787979 32.828475 38.570299 32.804578 40.408203 32.380859 C 45.086151 31.302361 50.438652 31.342979 55.333984 32.494141 L 56.484375 32.765625 L 57.613281 32.054688 C 60.65237 30.141026 63.3464 29.113161 65.328125 29.111328 L 66.220703 29.111328 L 66.441406 29.707031 C 67.419814 32.356077 67.552181 35.681563 66.771484 37.994141 L 66.576172 38.572266 L 67.072266 39.148438 C 68.412933 40.703007 69.448597 42.837272 69.935547 45.054688 C 70.205378 46.283439 70.208609 50.707638 69.939453 52.246094 C 69.261474 56.131177 68.030059 58.730518 65.841797 60.898438 C 64.236318 62.488999 62.348234 63.594979 59.841797 64.416016 C 58.541486 64.841958 56.077268 65.38389 54.857422 65.511719 C 54.487283 65.550569 54.156058 65.597598 54.121094 65.617188 C 54.086124 65.636777 54.260306 65.87674 54.509766 66.148438 C 55.12815 66.821972 55.747508 68.050704 56.076172 69.259766 L 56.349609 70.265625 L 56.40625 76.496094 C 56.46157 82.624075 56.465361 82.732186 56.679688 83.019531 C 57.309432 83.863878 58.167674 83.927235 59.9375 83.261719 C 64.880803 81.402834 68.736105 78.905235 72.564453 75.082031 C 74.595391 73.053858 75.760188 71.637584 77.210938 69.433594 C 82.058593 62.068951 83.98361 53.073363 82.589844 44.289062 C 81.18567 35.438969 76.428885 27.442592 69.236328 21.84375 C 63.98343 17.754771 57.675694 15.254894 50.875 14.564453 C 50.205821 14.496431 49.194773 14.46072 48.105469 14.455078 L 48.103516 14.455078 z "
     d="m 48.103516,13.855469 c -1.83383,-0.0092 -3.857842,0.06084 -4.972657,0.210937 -11.089152,1.492142 -20.362752,7.404342 -26.291015,16.767578 -0.420516,0.664191 -1.188232,2.083959 -1.759766,3.240235 -1.843418,3.729512 -2.872019,7.187033 -3.492187,11.730469 -0.237937,1.743079 -0.200136,6.952659 0.05664,8.755859 0.846755,5.947389 2.883583,11.245072 6.140625,15.949219 4.097087,5.917467 9.987431,10.550603 16.732422,13.162109 0.919217,0.355892 1.532093,0.566464 2.095703,0.630859 0.563611,0.0644 1.068352,-0.0642 1.529297,-0.292968 0.382309,-0.18974 0.642497,-0.46492 0.847656,-0.824219 0.120427,-0.210903 0.246852,-0.538312 0.279297,-1.082031 0.03245,-0.54372 0.03434,-1.426581 0.03516,-3.166016 6e-4,-1.415758 -0.0065,-2.30221 -0.02734,-2.855469 -0.0104,-0.276629 -0.02142,-0.464905 -0.04687,-0.626953 -0.01273,-0.08102 -0.02311,-0.154376 -0.07227,-0.267578 -0.02458,-0.0566 -0.0583,-0.127977 -0.146484,-0.214844 -0.08818,-0.08687 -0.264112,-0.18164 -0.439453,-0.18164 -0.119657,0 -0.129742,0.0086 -0.210938,0.01758 -0.0812,0.009 -0.185076,0.02183 -0.30664,0.03711 -0.24313,0.03055 -0.557837,0.07109 -0.886719,0.117188 -1.541427,0.215997 -4.44073,0.115118 -5.402344,-0.138672 C 30.14252,74.39589 28.713764,73.425021 27.984375,72.326172 27.825458,72.086745 27.481582,71.433463 27.298828,71 c -0.480564,-1.139831 -1.194331,-2.383687 -1.945312,-3.390625 -0.756282,-1.014034 -1.283709,-1.527509 -2.150391,-2.083984 -0.347286,-0.222993 -0.686846,-0.502914 -0.917969,-0.740235 -0.07759,-0.07967 -0.119357,-0.137096 -0.167968,-0.199218 0.113805,-0.054 0.28254,-0.117475 0.535156,-0.144532 1.088402,-0.116548 2.283252,0.270189 3.433594,1.185547 0.735552,0.58528 1.289928,1.228174 2.125,2.486328 1.148059,1.729714 2.593784,2.910071 4.28125,3.455078 1.687465,0.545008 3.585595,0.447519 5.617187,-0.248047 0.246746,-0.08445 0.478066,-0.178763 0.669922,-0.271484 0.09593,-0.04636 0.180785,-0.08954 0.263672,-0.142578 0.08289,-0.05304 0.166712,-0.04174 0.30664,-0.316406 0.05894,-0.115789 0.0624,-0.150829 0.08594,-0.226563 0.02354,-0.07573 0.04853,-0.163959 0.07617,-0.265625 0.05528,-0.203332 0.119724,-0.456026 0.179687,-0.714844 0.24721,-1.0671 0.756403,-2.0871 1.34375,-2.746093 0.150838,-0.169225 0.28352,-0.325578 0.382813,-0.451172 0.04965,-0.0628 0.08988,-0.115283 0.128906,-0.173828 0.01951,-0.02927 0.03742,-0.05558 0.06641,-0.117188 0.01449,-0.03081 0.0356,-0.06426 0.05273,-0.162109 0.0043,-0.02446 0.0069,-0.05304 0.0078,-0.08984 9.19e-4,-0.0368 -0.01162,-0.136236 -0.01172,-0.136719 -9.8e-5,-4.83e-4 -0.07205,-0.189095 -0.07227,-0.189453 -2.12e-4,-3.54e-4 -0.165928,-0.177466 -0.169922,-0.18164 -0.01321,-0.0082 -0.0785,-0.04905 -0.09961,-0.05859 -0.02319,-0.01049 -0.03831,-0.01516 -0.05078,-0.01953 -0.02495,-0.0087 -0.04055,-0.01238 -0.05273,-0.01563 -0.02436,-0.0065 -0.03834,-0.01026 -0.05469,-0.01367 -0.03269,-0.0068 -0.06534,-0.01255 -0.105468,-0.01953 -0.08025,-0.01396 -0.186677,-0.03118 -0.314453,-0.05078 -0.255553,-0.0392 -0.598204,-0.08918 -0.970704,-0.140625 -6.788598,-0.93808 -10.928896,-3.807073 -12.929687,-8.84375 -0.623278,-1.569009 -1.038353,-3.612665 -1.210938,-6.064453 -0.267839,-3.804595 0.374103,-6.608771 2.058594,-9.183594 0.262123,-0.400664 0.696463,-0.985987 0.898438,-1.21875 0.174972,-0.201659 0.305303,-0.363935 0.40625,-0.55664 0.100946,-0.192705 0.168243,-0.473801 0.0957,-0.726563 -0.491971,-1.714367 -0.499379,-1.787822 -0.492188,-3.880859 0.0062,-1.972985 0.0018,-1.979279 0.304688,-3.107422 0.171565,-0.639196 0.420554,-1.408423 0.458984,-1.498047 a 0.59916551,0.59916551 0 0 0 0,-0.002 l 0.01172,-0.02344 h 0.457031 c 1.731651,0.0014 4.476151,1.008839 7.423828,2.861328 0.5966,0.374936 0.920012,0.633811 1.435547,0.691406 0.515535,0.05759 0.942012,-0.08869 1.853516,-0.298828 4.577253,-1.055283 9.850636,-1.016324 14.654297,0.113281 l 1.15039,0.271484 a 0.59916551,0.59916551 0 0 0 0.455078,-0.07617 L 57.931641,32.5625 c 2.985851,-1.880139 5.621416,-2.849921 7.396484,-2.851562 h 0.476563 l 0.07422,0.205078 c 0.927452,2.512418 1.042516,5.758981 0.324219,7.886718 l -0.195313,0.578125 a 0.59916551,0.59916551 0 0 0 0.115235,0.582032 l 0.496094,0.576171 c 1.263211,1.464756 2.264415,3.522274 2.730468,5.644532 0.102714,0.467735 0.190526,1.918151 0.191407,3.351562 8.8e-4,1.433411 -0.0737,2.934626 -0.191407,3.607422 -0.664639,3.808639 -1.831687,6.251581 -3.929687,8.330078 -1.537288,1.523004 -3.323905,2.573849 -5.763672,3.373047 -1.230382,0.403036 -3.732864,0.95206 -4.861328,1.070313 -0.191578,0.02011 -0.371793,0.04195 -0.515625,0.0625 -0.07192,0.01027 -0.133708,0.02088 -0.189453,0.03125 -0.02787,0.0052 -0.05448,0.0098 -0.08594,0.01758 -0.03146,0.0078 -0.04005,-0.0096 -0.175781,0.06641 -0.0011,6.12e-4 -0.208296,0.194276 -0.208984,0.195312 -3.45e-4,5.19e-4 -0.04415,0.07654 -0.05859,0.113282 -0.01444,0.03674 -0.0249,0.07202 -0.03125,0.103515 -0.02538,0.125964 -0.0094,0.200353 0.002,0.253907 0.02273,0.107106 0.04753,0.145419 0.06836,0.185546 0.04165,0.08025 0.07982,0.133406 0.125,0.195313 0.09036,0.123814 0.206575,0.262706 0.34375,0.412109 0.507671,0.552947 1.124049,1.738922 1.429688,2.863282 l 0.253906,0.93164 0.05469,6.154297 c 0.02766,3.064082 0.04246,4.617541 0.07813,5.470703 0.01783,0.426581 0.03762,0.678242 0.08398,0.894532 0.04636,0.216289 0.166628,0.424175 0.230469,0.509765 0.388559,0.520972 0.968759,0.87815 1.636719,0.927735 0.667959,0.04958 1.391861,-0.13623 2.3125,-0.482422 5.01273,-1.884993 8.961506,-4.443281 12.839843,-8.316407 2.04857,-2.04578 3.25574,-3.513637 4.722657,-5.742187 4.930791,-7.490946 6.887767,-16.637216 5.470703,-25.56836 C 81.753405,35.193566 76.913226,27.061131 69.603516,21.371094 64.26057,17.212019 57.843781,14.670109 50.935547,13.96875 50.226954,13.896722 49.209852,13.861169 48.109375,13.855469 a 0.59916551,0.59916551 0 0 0 -0.002,0 z"
     transform="translate(0,0.611908)" />
  <path
     id="path2541"
     style="display:inline;opacity:0.15;fill:#000000;fill-opacity:1;stroke-width:0.422136;stroke-linecap:round"
     sodipodi:type="inkscape:offset"
     inkscape:radius="1.2199576"
     inkscape:original="M 48.103516 14.455078 C 46.287123 14.445847 44.251991 14.519994 43.210938 14.660156 C 32.284684 16.130378 23.184213 21.93282 17.345703 31.154297 C 16.957584 31.767319 16.180126 33.200958 15.617188 34.339844 C 13.799376 38.017551 12.795395 41.388322 12.181641 45.884766 C 11.970255 47.433339 12.006414 52.848288 12.238281 54.476562 C 13.07318 60.340682 15.073442 65.540572 18.277344 70.167969 C 22.304678 75.984692 28.102504 80.545572 34.734375 83.113281 C 36.547386 83.815223 37.067603 83.87434 37.876953 83.472656 C 38.079839 83.371964 38.341227 83.115426 38.470703 82.888672 C 38.697521 82.491447 38.703446 82.415693 38.705078 78.9375 C 38.706278 76.109921 38.678708 75.390625 38.572266 75.390625 C 38.498766 75.390625 37.904526 75.465178 37.251953 75.556641 C 35.600042 75.78812 32.781458 75.712603 31.613281 75.404297 C 29.862429 74.942257 28.318886 73.915422 27.484375 72.658203 C 27.279235 72.349135 26.946151 71.706925 26.746094 71.232422 C 26.287877 70.145595 25.590513 68.928796 24.873047 67.966797 C 24.135178 66.977451 23.704806 66.559587 22.878906 66.029297 C 22.103182 65.531204 21.416016 64.825441 21.416016 64.527344 C 21.416016 64.193287 21.8848 63.921008 22.587891 63.845703 C 23.862049 63.709264 25.213745 64.167333 26.458984 65.158203 C 27.249206 65.786984 27.859365 66.498234 28.710938 67.78125 C 30.891835 71.067078 34.035129 72.082624 37.916016 70.753906 C 38.366852 70.599597 38.772896 70.403765 38.816406 70.318359 C 38.859916 70.232889 38.990781 69.7515 39.107422 69.248047 C 39.375683 68.090078 39.91462 66.993679 40.587891 66.238281 C 40.876883 65.914062 41.095338 65.637826 41.074219 65.623047 C 41.053089 65.607507 40.429715 65.512387 39.689453 65.410156 C 32.765219 64.453333 28.363802 61.426024 26.285156 56.193359 C 25.630051 54.544229 25.208847 52.44642 25.033203 49.951172 C 24.759052 46.056919 25.430338 43.082387 27.1875 40.396484 C 27.466902 39.969407 27.892643 39.392312 28.134766 39.113281 C 28.458659 38.739988 28.559576 38.548622 28.513672 38.388672 C 28.019526 36.666723 27.990836 36.43849 27.998047 34.339844 C 28.004247 32.363932 28.019196 32.21426 28.324219 31.078125 C 28.499988 30.423269 28.718988 29.71353 28.810547 29.5 L 28.976562 29.111328 L 29.830078 29.111328 C 31.779294 29.112928 34.568965 30.177007 37.572266 32.064453 C 38.787979 32.828475 38.570299 32.804578 40.408203 32.380859 C 45.086151 31.302361 50.438652 31.342979 55.333984 32.494141 L 56.484375 32.765625 L 57.613281 32.054688 C 60.65237 30.141026 63.3464 29.113161 65.328125 29.111328 L 66.220703 29.111328 L 66.441406 29.707031 C 67.419814 32.356077 67.552181 35.681563 66.771484 37.994141 L 66.576172 38.572266 L 67.072266 39.148438 C 68.412933 40.703007 69.448597 42.837272 69.935547 45.054688 C 70.205378 46.283439 70.208609 50.707638 69.939453 52.246094 C 69.261474 56.131177 68.030059 58.730518 65.841797 60.898438 C 64.236318 62.488999 62.348234 63.594979 59.841797 64.416016 C 58.541486 64.841958 56.077268 65.38389 54.857422 65.511719 C 54.487283 65.550569 54.156058 65.597598 54.121094 65.617188 C 54.086124 65.636777 54.260306 65.87674 54.509766 66.148438 C 55.12815 66.821972 55.747508 68.050704 56.076172 69.259766 L 56.349609 70.265625 L 56.40625 76.496094 C 56.46157 82.624075 56.465361 82.732186 56.679688 83.019531 C 57.309432 83.863878 58.167674 83.927235 59.9375 83.261719 C 64.880803 81.402834 68.736105 78.905235 72.564453 75.082031 C 74.595391 73.053858 75.760188 71.637584 77.210938 69.433594 C 82.058593 62.068951 83.98361 53.073363 82.589844 44.289062 C 81.18567 35.438969 76.428885 27.442592 69.236328 21.84375 C 63.98343 17.754771 57.675694 15.254894 50.875 14.564453 C 50.205821 14.496431 49.194773 14.46072 48.105469 14.455078 L 48.103516 14.455078 z "
     d="m 48.103516,13.234375 c -1.852448,-0.0092 -3.863033,0.05636 -5.054688,0.216797 -11.257964,1.514856 -20.7131,7.54064 -26.734375,17.050781 -0.454087,0.717217 -1.210574,2.122578 -1.791015,3.296875 -1.869955,3.783199 -2.923966,7.329742 -3.550782,11.921875 -0.265451,1.944647 -0.223996,6.943259 0.05859,8.927735 0.85904,6.03368 2.930077,11.43116 6.242188,16.214843 4.16937,6.021868 10.157314,10.729825 17.019531,13.386719 0.932389,0.360992 1.576789,0.591051 2.25,0.667969 0.67321,0.07692 1.357695,-0.09385 1.876953,-0.351563 0.568245,-0.282019 0.825786,-0.57561 1.109375,-1.072265 0.1277,-0.22364 0.326387,-0.767978 0.361328,-1.353516 0.03494,-0.585538 0.03434,-1.46334 0.03516,-3.203125 6.02e-4,-1.417798 -0.0058,-2.304935 -0.02734,-2.878906 -0.01079,-0.286986 -0.02102,-0.486861 -0.05469,-0.701172 -0.01683,-0.107156 -0.02648,-0.211609 -0.115234,-0.416016 -0.04438,-0.102203 -0.107959,-0.239445 -0.28125,-0.410156 -0.173291,-0.170711 -0.524847,-0.361328 -0.875,-0.361328 -0.224615,0 -0.192967,0.01195 -0.279297,0.02148 -0.08633,0.0095 -0.192867,0.02159 -0.316407,0.03711 -0.247078,0.03105 -0.562958,0.07267 -0.894531,0.11914 -1.426933,0.199954 -4.41065,0.07425 -5.158203,-0.123047 C 30.433106,73.831216 29.120452,72.919106 28.5,71.984375 c -0.111015,-0.167258 -0.464084,-0.83563 -0.628906,-1.226563 -0.503723,-1.194759 -1.233817,-2.466023 -2.019532,-3.519531 -0.712469,-0.95529 -1.330941,-1.51184 -2.126953,-2.054687 0.634405,0.133347 1.292179,0.386659 1.97461,0.929687 0.678898,0.540201 1.178123,1.109407 1.996093,2.341797 1.207762,1.819663 2.768861,3.109949 4.605469,3.703125 1.836608,0.593177 3.883717,0.477906 6.009766,-0.25 0.268849,-0.09202 0.516838,-0.191808 0.738281,-0.298828 0.110722,-0.05351 0.214386,-0.107612 0.330078,-0.181641 0.115693,-0.07403 0.251726,-0.01751 0.525391,-0.554687 a 1.2200796,1.2200796 0 0 0 0,-0.002 c 0.108755,-0.213637 0.09801,-0.235426 0.125,-0.322266 0.02699,-0.08684 0.05307,-0.182541 0.08203,-0.289062 0.05792,-0.213042 0.123881,-0.470162 0.185547,-0.736328 0.225395,-0.972935 0.702867,-1.913567 1.201172,-2.472657 0.15741,-0.176597 0.295356,-0.3402 0.40625,-0.480469 0.05545,-0.07013 0.101557,-0.127914 0.158203,-0.21289 0.02832,-0.04249 0.05894,-0.08176 0.113281,-0.197266 0.02717,-0.05776 0.06719,-0.124084 0.101563,-0.320312 0.0086,-0.04906 0.01572,-0.10733 0.01758,-0.181641 0.0019,-0.07431 -0.02334,-0.276861 -0.02344,-0.277344 -9.8e-5,-4.83e-4 -0.148223,-0.382454 -0.148437,-0.382812 -2.09e-4,-3.5e-4 -0.327128,-0.351534 -0.341797,-0.367188 -0.0221,-0.01369 -0.16184,-0.101544 -0.205078,-0.121093 -0.04658,-0.02106 -0.0771,-0.03048 -0.101563,-0.03906 -0.04892,-0.01716 -0.07591,-0.0235 -0.09766,-0.0293 -0.04349,-0.0116 -0.06524,-0.01675 -0.08789,-0.02148 -0.04531,-0.0095 -0.08306,-0.0158 -0.126953,-0.02344 -0.08778,-0.01528 -0.196045,-0.03278 -0.326171,-0.05273 -0.259745,-0.03984 -0.604411,-0.09091 -0.978516,-0.142578 h -0.002 C 33.208692,63.282239 29.33788,60.575262 27.417969,55.742188 26.827674,54.256208 26.419414,52.271984 26.25,49.865234 c -0.261298,-3.711682 0.349802,-6.341071 1.958984,-8.800781 0.244216,-0.373293 0.687288,-0.967529 0.847657,-1.152344 0.188471,-0.217217 0.342926,-0.402029 0.486328,-0.675781 0.143402,-0.273752 0.266506,-0.751774 0.142578,-1.183594 -0.489716,-1.70651 -0.473969,-1.62176 -0.466797,-3.708984 0.0062,-1.969952 -0.01745,-1.829357 0.283203,-2.949219 0.125619,-0.468013 0.243287,-0.817109 0.322266,-1.0625 h 0.0039 c 1.506188,0.0012 4.205669,0.949362 7.095703,2.765625 0.584934,0.367605 0.986645,0.703814 1.697266,0.783203 0.710621,0.07939 1.156761,-0.102183 2.060547,-0.310547 4.472904,-1.031225 9.664384,-0.995937 14.373047,0.111329 l 1.15039,0.271484 a 1.2200796,1.2200796 0 0 0 0.929688,-0.154297 l 1.128906,-0.710937 c 2.930681,-1.8454 5.505496,-2.754416 7.066406,-2.75586 h 0.0059 c 0.813476,2.348508 0.91622,5.384792 0.279296,7.271485 l -0.195312,0.578125 a 1.2200796,1.2200796 0 0 0 0.232422,1.1875 l 0.496094,0.576171 c 1.182944,1.371683 2.151305,3.347449 2.595703,5.371094 0.06934,0.315772 0.174912,1.804552 0.175781,3.21875 8.69e-4,1.414199 -0.08142,2.927136 -0.181641,3.5 a 1.2200796,1.2200796 0 0 0 0,0.002 c -0.650814,3.729421 -1.751398,6.008313 -3.755859,7.994141 -1.466622,1.452994 -3.148854,2.448043 -5.519531,3.224609 -1.157916,0.379298 -3.698656,0.93464 -4.732422,1.042969 -0.198323,0.02082 -0.384466,0.04237 -0.539063,0.06445 -0.0773,0.01104 -0.144598,0.02208 -0.214844,0.03516 -0.03512,0.0065 -0.07063,0.01295 -0.121093,0.02539 -0.05046,0.01244 -0.05822,-0.02341 -0.330078,0.128906 -0.0011,6.13e-4 -0.42314,0.391542 -0.423829,0.392578 -3.44e-4,5.19e-4 -0.08998,0.156289 -0.11914,0.230469 -0.02916,0.07418 -0.04778,0.143658 -0.06055,0.207031 -0.05108,0.253495 -0.02021,0.401456 0.002,0.50586 0.04432,0.208808 0.09052,0.277322 0.125,0.34375 0.06896,0.132856 0.11828,0.19928 0.173828,0.27539 0.111096,0.152222 0.2386,0.301394 0.388672,0.464844 0.392939,0.427983 1.005331,1.570839 1.28711,2.607422 l 0.232421,0.853516 0.05469,6.074218 c 0.02766,3.064178 0.04141,4.611975 0.07813,5.490235 0.01836,0.43913 0.03574,0.709219 0.09766,0.998047 0.06191,0.288827 0.265372,0.65211 0.339844,0.751953 0.464921,0.623355 1.262862,1.114392 2.089844,1.175781 0.826981,0.06139 1.618511,-0.159418 2.576172,-0.519531 5.084678,-1.912048 9.128452,-4.534124 13.058593,-8.458985 2.066841,-2.064026 3.321018,-3.587795 4.804688,-5.841796 5.016946,-7.621833 7.005662,-16.922544 5.564453,-26.00586 C 82.341751,34.938751 77.417445,26.665401 69.986328,20.880859 64.550066,16.649145 58.017725,14.064236 50.998047,13.351562 50.248609,13.275382 49.223384,13.240135 48.111328,13.234375 a 1.2200796,1.2200796 0 0 0 -0.002,0 z"
     transform="translate(0,1.332802)" />
  <path
     id="rect910"
     style="display:inline;fill:url(#linearGradient1702);fill-opacity:1;stroke-width:0.422136;stroke-linecap:round"
     d="m 48.105016,14.455455 c -1.816942,-0.0093 -3.853584,0.06371 -4.895052,0.203928 -10.926253,1.470222 -20.025945,7.27355 -25.864455,16.495027 -0.388119,0.613022 -1.166159,2.04657 -1.729097,3.185456 -1.817812,3.677707 -2.820229,7.047604 -3.433983,11.544048 -0.211386,1.548573 -0.176547,6.965042 0.05532,8.593317 0.834899,5.86412 2.836468,11.063888 6.04037,15.691285 4.027334,5.816723 9.824835,10.377098 16.456706,12.944807 1.813011,0.701942 2.333684,0.761754 3.143034,0.36007 0.202886,-0.100692 0.464061,-0.358299 0.593537,-0.585053 0.226818,-0.397225 0.23151,-0.472669 0.233142,-3.950862 0.0012,-2.827579 -0.02549,-3.546164 -0.131932,-3.546164 -0.0735,0 -0.667427,0.07475 -1.32,0.166213 -1.651911,0.231479 -4.470291,0.154618 -5.638468,-0.153688 -1.750852,-0.46204 -3.296099,-1.489289 -4.13061,-2.746508 -0.20514,-0.309068 -0.536446,-0.950126 -0.736503,-1.424629 -0.458217,-1.086827 -1.156787,-2.304203 -1.874253,-3.266202 -0.737869,-0.989346 -1.167137,-1.406493 -1.993037,-1.936783 -0.775724,-0.498093 -1.463898,-1.204136 -1.463898,-1.502233 0,-0.334057 0.468272,-0.606854 1.171363,-0.682159 1.274158,-0.136439 2.626139,0.322214 3.871378,1.313084 0.790222,0.628781 1.40163,1.340636 2.253202,2.623652 2.180897,3.285828 5.323869,4.300816 9.204756,2.972098 0.450836,-0.154309 0.855443,-0.350714 0.898953,-0.43612 0.04351,-0.08547 0.174635,-0.567058 0.291276,-1.070511 0.268261,-1.157969 0.806957,-2.253156 1.480228,-3.008554 0.288992,-0.324219 0.508147,-0.601385 0.487028,-0.616164 -0.02113,-0.01554 -0.644134,-0.110801 -1.384396,-0.213032 -6.924234,-0.956823 -11.325529,-3.982781 -13.404175,-9.215446 -0.655105,-1.64913 -1.075841,-3.748086 -1.251485,-6.243334 -0.274151,-3.894253 0.396105,-6.868572 2.153267,-9.554475 0.279402,-0.427077 0.706168,-1.004825 0.948291,-1.283856 0.323893,-0.373293 0.423891,-0.564617 0.377987,-0.724567 -0.494146,-1.721949 -0.523143,-1.949635 -0.515932,-4.048281 0.0062,-1.975912 0.02145,-2.125357 0.326473,-3.261492 0.175769,-0.654856 0.394505,-1.36536 0.486064,-1.57889 l 0.166539,-0.388057 0.852769,6.37e-4 c 1.949216,0.0016 4.738816,1.065492 7.742117,2.952938 1.215713,0.764022 0.999713,0.740137 2.837617,0.316418 4.677948,-1.078498 10.030238,-1.038034 14.92557,0.113128 l 1.150323,0.27053 1.127385,-0.710115 c 3.039089,-1.913661 5.73368,-2.94105 7.715405,-2.942883 l 0.893296,-6.38e-4 0.219948,0.595106 c 0.978408,2.649046 1.110931,5.974391 0.330234,8.286969 l -0.195131,0.577826 0.496771,0.576258 c 1.340667,1.55457 2.37581,3.690666 2.86276,5.908081 0.269831,1.228751 0.272256,5.652843 0.0031,7.191299 -0.677979,3.885083 -1.908408,6.482893 -4.09667,8.650813 -1.605479,1.590561 -3.493703,2.697793 -6.00014,3.51883 -1.300311,0.425942 -3.76507,0.967825 -4.984916,1.095654 -0.370139,0.03885 -0.701553,0.08624 -0.736517,0.10583 -0.03497,0.01959 0.140477,0.258051 0.389937,0.529748 0.618384,0.673534 1.236737,1.90255 1.565401,3.111612 l 0.273669,1.006736 0.05594,6.230763 c 0.05532,6.127981 0.05998,6.235329 0.274306,6.522674 0.629745,0.844347 1.48758,0.90809 3.257406,0.242574 4.943303,-1.858885 8.799716,-4.35693 12.628064,-8.180134 2.030938,-2.028173 3.195775,-3.444222 4.646525,-5.648212 4.847655,-7.364643 6.771775,-16.360934 5.378009,-25.145234 -1.404174,-8.850093 -6.160986,-16.84543 -13.353543,-22.444272 -5.252898,-4.088979 -11.560116,-6.589791 -18.36081,-7.280232 -0.66965,-0.06807 -1.680847,-0.103178 -2.77103,-0.108782 z" />
  <path
     id="path1617"
     style="display:inline;fill:url(#linearGradient1627);fill-opacity:1;stroke-width:0.422136;stroke-linecap:round"
     sodipodi:type="inkscape:offset"
     inkscape:radius="-1.1998118"
     inkscape:original="M 48.103516 14.455078 C 46.287123 14.445847 44.251991 14.519994 43.210938 14.660156 C 32.284684 16.130378 23.184213 21.93282 17.345703 31.154297 C 16.957584 31.767319 16.180126 33.200958 15.617188 34.339844 C 13.799376 38.017551 12.795395 41.388322 12.181641 45.884766 C 11.970255 47.433339 12.006414 52.848288 12.238281 54.476562 C 13.07318 60.340682 15.073442 65.540572 18.277344 70.167969 C 22.304678 75.984692 28.102504 80.545572 34.734375 83.113281 C 36.547386 83.815223 37.067603 83.87434 37.876953 83.472656 C 38.079839 83.371964 38.341227 83.115426 38.470703 82.888672 C 38.697521 82.491447 38.703446 82.415693 38.705078 78.9375 C 38.706278 76.109921 38.678708 75.390625 38.572266 75.390625 C 38.498766 75.390625 37.904526 75.465178 37.251953 75.556641 C 35.600042 75.78812 32.781458 75.712603 31.613281 75.404297 C 29.862429 74.942257 28.318886 73.915422 27.484375 72.658203 C 27.279235 72.349135 26.946151 71.706925 26.746094 71.232422 C 26.287877 70.145595 25.590513 68.928796 24.873047 67.966797 C 24.135178 66.977451 23.704806 66.559587 22.878906 66.029297 C 22.103182 65.531204 21.416016 64.825441 21.416016 64.527344 C 21.416016 64.193287 21.8848 63.921008 22.587891 63.845703 C 23.862049 63.709264 25.213745 64.167333 26.458984 65.158203 C 27.249206 65.786984 27.859365 66.498234 28.710938 67.78125 C 30.891835 71.067078 34.035129 72.082624 37.916016 70.753906 C 38.366852 70.599597 38.772896 70.403765 38.816406 70.318359 C 38.859916 70.232889 38.990781 69.7515 39.107422 69.248047 C 39.375683 68.090078 39.91462 66.993679 40.587891 66.238281 C 40.876883 65.914062 41.095338 65.637826 41.074219 65.623047 C 41.053089 65.607507 40.429715 65.512387 39.689453 65.410156 C 32.765219 64.453333 28.363802 61.426024 26.285156 56.193359 C 25.630051 54.544229 25.208847 52.44642 25.033203 49.951172 C 24.759052 46.056919 25.430338 43.082387 27.1875 40.396484 C 27.466902 39.969407 27.892643 39.392312 28.134766 39.113281 C 28.458659 38.739988 28.559576 38.548622 28.513672 38.388672 C 28.019526 36.666723 27.990836 36.43849 27.998047 34.339844 C 28.004247 32.363932 28.019196 32.21426 28.324219 31.078125 C 28.499988 30.423269 28.718988 29.71353 28.810547 29.5 L 28.976562 29.111328 L 29.830078 29.111328 C 31.779294 29.112928 34.568965 30.177007 37.572266 32.064453 C 38.787979 32.828475 38.570299 32.804578 40.408203 32.380859 C 45.086151 31.302361 50.438652 31.342979 55.333984 32.494141 L 56.484375 32.765625 L 57.613281 32.054688 C 60.65237 30.141026 63.3464 29.113161 65.328125 29.111328 L 66.220703 29.111328 L 66.441406 29.707031 C 67.419814 32.356077 67.552181 35.681563 66.771484 37.994141 L 66.576172 38.572266 L 67.072266 39.148438 C 68.412933 40.703007 69.448597 42.837272 69.935547 45.054688 C 70.205378 46.283439 70.208609 50.707638 69.939453 52.246094 C 69.261474 56.131177 68.030059 58.730518 65.841797 60.898438 C 64.236318 62.488999 62.348234 63.594979 59.841797 64.416016 C 58.541486 64.841958 56.077268 65.38389 54.857422 65.511719 C 54.487283 65.550569 54.156058 65.597598 54.121094 65.617188 C 54.086124 65.636777 54.260306 65.87674 54.509766 66.148438 C 55.12815 66.821972 55.747508 68.050704 56.076172 69.259766 L 56.349609 70.265625 L 56.40625 76.496094 C 56.46157 82.624075 56.465361 82.732186 56.679688 83.019531 C 57.309432 83.863878 58.167674 83.927235 59.9375 83.261719 C 64.880803 81.402834 68.736105 78.905235 72.564453 75.082031 C 74.595391 73.053858 75.760188 71.637584 77.210938 69.433594 C 82.058593 62.068951 83.98361 53.073363 82.589844 44.289062 C 81.18567 35.438969 76.428885 27.442592 69.236328 21.84375 C 63.98343 17.754771 57.675694 15.254894 50.875 14.564453 C 50.205821 14.496431 49.194773 14.46072 48.105469 14.455078 L 48.103516 14.455078 z "
     d="m 48.097656,15.654297 c -1.779188,-0.009 -3.83498,0.07527 -4.726562,0.195312 -10.600022,1.426325 -19.352956,7.009686 -25.011719,15.947266 -0.32324,0.510547 -1.120292,1.970159 -1.666016,3.074219 -1.76653,3.573957 -2.721357,6.773446 -3.322265,11.175781 -0.158214,1.15904 -0.127294,6.981811 0.05469,8.259766 0.811157,5.697359 2.740411,10.704042 5.837891,15.177734 3.887643,5.614966 9.498968,10.029768 15.904297,12.509766 0.881049,0.341115 1.404346,0.493372 1.65039,0.521484 0.246045,0.02811 0.233406,0.02773 0.525391,-0.117187 -0.15644,0.07764 0.10803,-0.144159 0.08594,-0.105469 0.09935,-0.173999 0.01971,0.125675 0.04492,-0.296875 0.02521,-0.42255 0.03043,-1.320175 0.03125,-3.058594 4.73e-4,-1.113658 -0.0085,-1.678813 -0.01953,-2.203125 -0.02531,0.0035 -0.04285,0.0062 -0.06836,0.0098 -1.873174,0.262484 -4.529474,0.237796 -6.111328,-0.179688 -2.006687,-0.529553 -3.77723,-1.667806 -4.822266,-3.242187 -0.29771,-0.448537 -0.60904,-1.066354 -0.84375,-1.623047 -0.413463,-0.980677 -1.078171,-2.143624 -1.728516,-3.015625 -0.700994,-0.939905 -0.937413,-1.166682 -1.68164,-1.644532 -0.469122,-0.301223 -0.890249,-0.644692 -1.234375,-0.998046 -0.172063,-0.176678 -0.323164,-0.353942 -0.460938,-0.5625 -0.137773,-0.208558 -0.318359,-0.415685 -0.318359,-0.951172 0,-0.728263 0.502618,-1.233114 0.917969,-1.47461 0.415351,-0.241495 0.85045,-0.349438 1.326172,-0.40039 1.646166,-0.176275 3.308853,0.42431 4.74414,1.566406 0.899708,0.715899 1.621239,1.565631 2.50586,2.898438 0.975072,1.469083 2.078659,2.332844 3.333984,2.738281 1.255325,0.405437 2.724518,0.365533 4.482422,-0.236328 0.108915,-0.03728 0.187217,-0.07484 0.279297,-0.113282 0.04192,-0.159436 0.08788,-0.335371 0.132812,-0.529297 0.211379,-0.912432 0.59912,-1.740076 1.064453,-2.501953 -6.890422,-1.08832 -11.658109,-4.360467 -13.833984,-9.83789 -0.718845,-1.809586 -1.152214,-4.019278 -1.333984,-6.601563 -0.286792,-4.073809 0.444958,-7.386561 2.347656,-10.294922 0.314007,-0.479972 0.722395,-1.042371 1.044922,-1.414062 0.05589,-0.06441 0.04098,-0.04892 0.07031,-0.08789 -0.364094,-1.341991 -0.506455,-2.023812 -0.5,-3.902343 0.0062,-1.981774 0.05787,-2.41622 0.367188,-3.56836 0.183998,-0.685515 0.343336,-1.276815 0.541015,-1.738281 v -0.002 l 0.166016,-0.386719 a 1.1999318,1.1999318 0 0 1 1.103515,-0.728516 h 0.853516 a 1.1999318,1.1999318 0 0 1 0.002,0 c 2.384928,0.002 5.26421,1.179266 8.378907,3.136719 0.6304,0.396179 0.729414,0.43329 0.679687,0.427734 -0.04973,-0.0056 0.314179,-0.05033 1.248047,-0.265624 4.879606,-1.124991 10.391784,-1.0791 15.470703,0.115234 l 0.662109,0.15625 0.703125,-0.44336 c 3.145707,-1.980797 5.955972,-3.124737 8.351563,-3.126953 a 1.1999318,1.1999318 0 0 1 0.002,0 h 0.892578 a 1.1999318,1.1999318 0 0 1 1.125,0.783203 l 0.220703,0.595704 c 1.079292,2.922189 1.247132,6.404156 0.341797,9.085937 l 0.02344,-0.06836 0.05078,0.05664 h -0.002 c 1.495784,1.734436 2.598153,4.023654 3.126953,6.431641 0.199405,0.908048 0.231507,2.247249 0.232422,3.736328 9.15e-4,1.48908 -0.05039,2.957573 -0.21875,3.919922 -0.704695,4.038175 -2.06652,6.94987 -4.435547,9.296875 -1.742043,1.725856 -3.830749,2.941867 -6.470703,3.806641 -1.165635,0.381826 -2.851467,0.705485 -4.234375,0.929687 0.476998,0.773866 0.998451,1.519238 1.253906,2.458984 l 0.273437,1.00586 a 1.1999318,1.1999318 0 0 1 0.04102,0.302734 l 0.05664,6.230469 c 0.02766,3.063807 0.04355,4.633621 0.07617,5.414063 0.01244,0.29754 0.02621,0.377819 0.03516,0.451171 0.07237,0.0946 0.09427,0.148307 0.253906,0.160157 0.207192,0.01538 0.731555,-0.06524 1.544922,-0.371094 4.804262,-1.8066 8.472936,-4.183023 12.201172,-7.90625 1.995628,-1.992911 3.073813,-3.30418 4.492187,-5.458984 4.68116,-7.111701 6.542419,-15.806652 5.195313,-24.296876 C 80.04831,35.930182 75.457937,28.207224 68.5,22.791016 63.427438,18.842415 57.339232,16.426388 50.753906,15.757812 c -0.588945,-0.05987 -1.584169,-0.09786 -2.648437,-0.103515 h -0.002 a 1.1999318,1.1999318 0 0 1 -0.0059,0 z"
     transform="translate(0,-0.630234)" />
  <g
     id="g2511">
    <path
       id="path1586"
       style="display:none;opacity:0.45;fill:#000000;fill-opacity:1;stroke-width:0.454039;stroke-linecap:round"
       d="m 48.689453,11.792969 c -1.954254,-0.01002 -4.14545,0.06793 -5.265625,0.21875 -11.751986,1.581331 -21.538614,7.823813 -27.818359,17.742187 -0.41745,0.659351 -1.253894,2.200827 -1.859375,3.425782 -1.95519,3.955643 -3.033222,7.57976 -3.69336,12.416015 -0.1216825,0.891426 -0.164498,2.958389 -0.1425778,4.970703 0.00603,-1.556125 0.047142,-3.027418 0.1425778,-3.726562 0.660138,-4.836255 1.73817,-8.460373 3.69336,-12.416016 0.605481,-1.224955 1.441925,-2.766431 1.859375,-3.425781 6.279745,-9.918374 16.066373,-16.160856 27.818359,-17.742188 1.120175,-0.150818 3.311371,-0.22877 5.265625,-0.21875 1.172572,0.006 2.260212,0.04398 2.980469,0.117188 7.314645,0.74262 14.098169,3.432081 19.748047,7.830078 7.736122,6.021965 12.852989,14.621702 14.363281,24.140625 0.274798,1.731934 0.425308,3.471988 0.462891,5.207031 0.02288,-2.14706 -0.122271,-4.304394 -0.462891,-6.451172 C 84.270958,34.361936 79.154091,25.762199 71.417969,19.740234 65.768091,15.342238 58.984567,12.650823 51.669922,11.908203 50.949665,11.834991 49.862025,11.798996 48.689453,11.792969 Z m 20.607422,22.208984 c -0.04606,1.122879 -0.221481,2.189825 -0.53125,3.107422 l -0.208984,0.621094 0.289062,0.333984 c 0.357932,-1.19653 0.512141,-2.605485 0.451172,-4.0625 z m -42.228516,0.199219 c -4.57e-4,0.102435 -0.0055,0.109548 -0.0059,0.222656 -0.0065,1.891566 0.03187,2.418014 0.351562,3.613281 0.153349,-0.214302 0.238196,-0.381705 0.203126,-0.503906 -0.432499,-1.507125 -0.530311,-2.003025 -0.548829,-3.332031 z m -3.238281,14.691406 c -0.02043,0.743425 -0.01231,1.50925 0.04492,2.322266 0.188918,2.683822 0.64109,4.941083 1.345703,6.714844 2.235736,5.628115 6.970447,8.882976 14.417969,9.912109 0.333323,0.04603 0.372175,0.05804 0.623047,0.0957 0.111808,-0.154061 0.2213,-0.312071 0.341797,-0.447266 0.310831,-0.348721 0.546152,-0.648166 0.523437,-0.664062 C 41.104221,66.809459 40.434876,66.70761 39.63867,66.597653 32.19115,65.568523 27.456439,62.313662 25.220703,56.685547 24.51609,54.911787 24.063918,52.654525 23.875,49.970703 23.84895,49.600641 23.84017,49.247661 23.83008,48.892578 Z m 48.542969,0.197266 c -0.01698,1.336827 -0.07493,2.639277 -0.199219,3.349609 -0.729216,4.178692 -2.052613,6.972931 -4.40625,9.304688 -1.72681,1.710765 -3.757269,2.902071 -6.453125,3.785156 -1.398579,0.458132 -4.051247,1.040244 -5.363281,1.177734 -0.398112,0.04179 -0.75341,0.09417 -0.791016,0.115235 -0.03761,0.02107 0.15161,0.276129 0.419922,0.568359 0.142616,0.155335 0.282334,0.350515 0.421875,0.554687 1.32596,-0.145331 3.928786,-0.718611 5.3125,-1.171874 2.695856,-0.883086 4.726315,-2.074391 6.453125,-3.785157 2.353637,-2.331756 3.677034,-5.125995 4.40625,-9.304687 0.164478,-0.940021 0.222469,-2.849562 0.199219,-4.59375 z m -51.919922,17.28125 c -0.287638,0.13533 -0.470703,0.313967 -0.470703,0.521484 0,0.320626 0.741824,1.081452 1.576172,1.617188 0.888316,0.570366 1.348947,1.017916 2.142578,2.082031 0.771687,1.0347 1.522778,2.344709 2.015625,3.513672 0.215176,0.510362 0.572325,1.198824 0.792969,1.53125 0.897577,1.352231 2.560189,2.458119 4.443359,2.955078 1.25646,0.331606 4.287701,0.413035 6.064453,0.164062 0.701889,-0.09837 1.340862,-0.177734 1.419922,-0.177734 0.102234,0 0.129621,0.864349 0.134766,3.162109 3.65e-4,-0.274944 0.0057,-0.263044 0.0059,-0.591796 0.0013,-3.041268 -0.02614,-3.814454 -0.140625,-3.814454 -0.07906,0 -0.718033,0.07936 -1.419922,0.177735 -1.776752,0.248973 -4.807993,0.167543 -6.064453,-0.164063 -1.88317,-0.496958 -3.545782,-1.602846 -4.443359,-2.955078 -0.220644,-0.332426 -0.577793,-1.020887 -0.792969,-1.53125 -0.492847,-1.168963 -1.243938,-2.478972 -2.015625,-3.513672 -0.793631,-1.064115 -1.254262,-1.513618 -2.142578,-2.083984 -0.419302,-0.269234 -0.815726,-0.594447 -1.105469,-0.892578 z" />
    <path
       id="path1590"
       style="display:none;opacity:0.3;fill:#000000;fill-opacity:1;stroke-width:0.454039;stroke-linecap:round"
       d="m 48.689453,11.792969 c -1.954254,-0.01002 -4.14545,0.06793 -5.265625,0.21875 -11.751986,1.581331 -21.538614,7.823813 -27.818359,17.742187 -0.41745,0.659351 -1.253894,2.200827 -1.859375,3.425782 -1.95519,3.955643 -3.033222,7.57976 -3.69336,12.416015 -0.1284953,0.941335 -0.1658965,3.182486 -0.1347652,5.294922 0.016834,-1.253694 0.054958,-2.401671 0.1347652,-2.986328 0.660138,-4.836255 1.73817,-8.460373 3.69336,-12.416016 0.605481,-1.224955 1.441925,-2.768384 1.859375,-3.427734 6.279745,-9.918374 16.066373,-16.158903 27.818359,-17.740235 1.120175,-0.150818 3.311371,-0.230723 5.265625,-0.220703 1.172572,0.006 2.260212,0.04398 2.980469,0.117188 7.314645,0.74262 14.098169,3.432081 19.748047,7.830078 7.736122,6.021965 12.852989,14.621702 14.363281,24.140625 0.261188,1.646154 0.406353,3.29971 0.453125,4.949219 0.07604,-2.411629 -0.06996,-4.84091 -0.453125,-7.25586 C 84.270958,34.361936 79.154091,25.762199 71.417969,19.740234 65.768091,15.342238 58.984567,12.650823 51.669922,11.908203 50.949665,11.834991 49.862025,11.798996 48.689453,11.792969 Z m 20.564453,22.740234 c -0.0738,0.925196 -0.22826,1.805938 -0.488281,2.576172 l -0.208984,0.621094 0.5,0.578125 c 0.237423,-1.15697 0.296861,-2.458704 0.197265,-3.775391 z m -42.171875,0.189453 c -0.0037,0.275718 -0.01831,0.377062 -0.01953,0.765625 -0.0049,1.431514 0.02193,2.064755 0.166016,2.800781 0.328132,-0.382176 0.43682,-0.588088 0.388672,-0.755859 -0.374761,-1.305926 -0.496142,-1.833852 -0.535158,-2.810547 z m -3.234375,14.572266 c -0.05686,0.939426 -0.04685,1.930487 0.02734,2.984375 0.188918,2.683822 0.64109,4.941083 1.345703,6.714844 2.235736,5.628115 6.970447,8.882976 14.417969,9.912109 0.01358,0.0019 0.01188,0.002 0.02539,0.0039 0.267748,-0.53704 0.585458,-1.022746 0.939454,-1.419922 0.310831,-0.348721 0.546152,-0.648166 0.523437,-0.664062 -0.02273,-0.01671 -0.692075,-0.118559 -1.488281,-0.228516 C 32.19115,65.568523 27.456439,62.313662 25.220703,56.685547 24.51609,54.911787 24.063918,52.654525 23.875,49.970703 23.85867,49.738755 23.85773,49.520916 23.84766,49.294922 Z m 48.513672,0.34375 c -0.02753,1.126735 -0.0807,2.190396 -0.1875,2.800781 -0.729216,4.178692 -2.052613,6.972931 -4.40625,9.304688 -1.72681,1.710765 -3.757269,2.902071 -6.453125,3.785156 -1.398579,0.458132 -4.051247,1.040244 -5.363281,1.177734 -0.398112,0.04179 -0.75341,0.09417 -0.791016,0.115235 -0.03761,0.02107 0.15161,0.276129 0.419922,0.568359 0.346027,0.376887 0.688095,0.920051 0.990234,1.533203 1.406182,-0.211764 3.526657,-0.687126 4.744141,-1.085937 2.695856,-0.883085 4.726315,-2.074391 6.453125,-3.785157 2.353637,-2.331756 3.677034,-5.125995 4.40625,-9.304687 0.181373,-1.036578 0.234299,-3.24471 0.1875,-5.109375 z m -50.875,17.572266 c -0.081,0.0042 -0.161729,0.0031 -0.242187,0.01172 -0.756227,0.081 -1.261719,0.375073 -1.261719,0.734375 0,0.320626 0.741824,1.079499 1.576172,1.615235 0.888316,0.570366 1.348947,1.019869 2.142578,2.083984 0.771687,1.0347 1.522778,2.342756 2.015625,3.511719 0.215176,0.510362 0.572325,1.200777 0.792969,1.533203 0.897577,1.352232 2.560189,2.456166 4.443359,2.953125 1.25646,0.331606 4.287701,0.414988 6.064453,0.166015 0.701889,-0.09837 1.340862,-0.179687 1.419922,-0.179687 0.09181,0 0.118658,0.842142 0.128906,2.607422 0.0015,-0.433136 0.01143,-0.488754 0.01172,-1.099609 0.0013,-3.041268 -0.02614,-3.814454 -0.140625,-3.814454 -0.07906,0 -0.718033,0.07936 -1.419922,0.177735 -1.776752,0.248973 -4.807993,0.167543 -6.064453,-0.164063 -1.88317,-0.496958 -3.545782,-1.602846 -4.443359,-2.955078 -0.220644,-0.332426 -0.577793,-1.020887 -0.792969,-1.53125 -0.492847,-1.168963 -1.243938,-2.478972 -2.015625,-3.513672 -0.793631,-1.064115 -1.254262,-1.513618 -2.142578,-2.083984 -0.02522,-0.01619 -0.04724,-0.03615 -0.07227,-0.05273 z" />
    <path
       id="path1596"
       style="display:none;opacity:0.15;fill:#000000;fill-opacity:1;stroke-width:0.454039;stroke-linecap:round"
       d="m 48.689453,11.792969 c -1.954254,-0.01002 -4.14545,0.06793 -5.265625,0.21875 -11.751986,1.581331 -21.538614,7.823813 -27.818359,17.742187 -0.41745,0.659351 -1.253894,2.200827 -1.859375,3.425782 -1.95519,3.955643 -3.033222,7.57976 -3.69336,12.416015 -0.1357183,0.994249 -0.1687122,3.431179 -0.1269528,5.638672 0.0234,-0.929861 0.06371,-1.739817 0.1269528,-2.203125 0.660138,-4.836255 1.73817,-8.460373 3.69336,-12.416016 0.605481,-1.224954 1.441925,-2.768384 1.859375,-3.427734 6.279745,-9.918374 16.066373,-16.158903 27.818359,-17.740234 1.120175,-0.150819 3.311371,-0.230723 5.265625,-0.220704 1.172572,0.006 2.260212,0.04398 2.980469,0.117188 7.314645,0.74262 14.098169,3.432082 19.748047,7.830078 7.736122,6.021965 12.852989,14.621702 14.363281,24.140625 0.228926,1.442823 0.36374,2.891495 0.427734,4.337891 C 86.325,49.071475 86.19178,46.468254 85.78125,43.880859 84.270958,34.361936 79.154091,25.762199 71.417969,19.740234 65.768091,15.342238 58.984567,12.650823 51.669922,11.908203 50.949665,11.834991 49.862025,11.798996 48.689453,11.792969 Z M 27.103516,35.023438 c -0.02191,0.406279 -0.03847,0.78222 -0.04102,1.589843 -0.0029,0.841844 0.0091,1.373951 0.04102,1.84375 0.03128,-0.038 0.0801,-0.113045 0.107422,-0.144531 0.34837,-0.401505 0.455622,-0.607259 0.40625,-0.779297 -0.333001,-1.160405 -0.459991,-1.720946 -0.513672,-2.509765 z m 42.107422,0.0625 c -0.08853,0.722974 -0.237112,1.406706 -0.445313,2.023437 l -0.208984,0.621094 0.535156,0.61914 c 0.04179,0.04845 0.07986,0.102852 0.121094,0.152344 0.130946,-1.08228 0.128586,-2.251697 -0.002,-3.416015 z M 23.882812,50.056641 c -0.08456,1.048866 -0.09186,2.153734 -0.0078,3.347656 0.188918,2.683822 0.64109,4.943037 1.345703,6.716797 2.194144,5.523414 6.801758,8.754402 14.011719,9.845703 0.319334,-0.955691 0.796677,-1.832079 1.371094,-2.476563 0.310831,-0.348721 0.546152,-0.648166 0.523437,-0.664062 -0.02273,-0.01671 -0.692075,-0.118559 -1.488281,-0.228516 C 32.19115,65.568523 27.456439,62.313662 25.220703,56.685547 24.52392,54.931499 24.075424,52.701261 23.882812,50.056641 Z m 48.464844,0.164062 c -0.03409,0.895897 -0.08557,1.714365 -0.173828,2.21875 -0.729216,4.178692 -2.052613,6.972931 -4.40625,9.304688 -1.72681,1.710765 -3.757269,2.902071 -6.453125,3.785156 -1.398579,0.458132 -4.051247,1.040244 -5.363281,1.177734 -0.398112,0.04179 -0.75341,0.09417 -0.791016,0.115235 -0.03761,0.02107 0.15161,0.276129 0.419922,0.568359 0.536012,0.583816 1.062641,1.557821 1.435547,2.59375 1.383558,-0.239064 3.211612,-0.663392 4.298828,-1.019531 2.695856,-0.883085 4.726315,-2.074391 6.453125,-3.785156 2.353637,-2.331757 3.677034,-5.125996 4.40625,-9.304688 0.199228,-1.138627 0.249777,-3.707498 0.173828,-5.654297 z m -50.58789,18.103516 c -0.173535,-0.0015 -0.344319,0.007 -0.515625,0.02539 -0.756227,0.081 -1.261719,0.375073 -1.261719,0.734375 0,0.320626 0.741824,1.079499 1.576172,1.615235 0.888316,0.570366 1.348947,1.019869 2.142578,2.083984 0.771687,1.0347 1.522778,2.342756 2.015625,3.511719 0.215176,0.510362 0.572325,1.200777 0.792969,1.533203 0.897577,1.352232 2.560189,2.456166 4.443359,2.953125 1.25646,0.331606 4.287701,0.414988 6.064453,0.166016 0.701889,-0.09837 1.340862,-0.179688 1.419922,-0.179688 0.08072,0 0.110015,0.724695 0.125,2.017578 0.0042,-0.534364 0.0152,-0.727498 0.01563,-1.636718 0.0013,-3.041268 -0.02614,-3.814454 -0.140625,-3.814454 -0.07906,0 -0.718033,0.07936 -1.419922,0.177735 -1.776752,0.248973 -4.807993,0.167543 -6.064453,-0.164063 -1.88317,-0.496958 -3.545782,-1.602846 -4.443359,-2.955078 -0.220644,-0.332426 -0.577793,-1.020887 -0.792969,-1.53125 -0.492847,-1.168963 -1.243938,-2.478972 -2.015625,-3.513672 -0.250373,-0.335705 -0.465708,-0.59764 -0.673828,-0.833984 -0.423982,-0.116739 -0.848864,-0.185771 -1.267578,-0.189453 z" />
    <path
       id="path1691"
       style="display:none;opacity:0.5;fill:#ffffff;stroke-width:0.454039;stroke-linecap:round"
       d="m 28.115234,27.556641 -0.179687,0.416015 c -0.09848,0.229667 -0.332433,0.994874 -0.521485,1.699219 -0.328075,1.221997 -0.344862,1.382574 -0.351562,3.507813 -0.0015,0.424439 0.0015,0.725047 0.0059,1.03125 0.0081,-1.819777 0.03524,-2.126813 0.345703,-3.283204 0.189052,-0.704345 0.423006,-1.467598 0.521485,-1.697265 L 28.115234,28.8125 h 0.917969 c 2.096525,0.0017 5.095901,1.145695 8.326172,3.175781 1.307589,0.821762 1.075933,0.797539 3.052734,0.341797 5.031476,-1.160004 10.787447,-1.117065 16.052735,0.121094 l 1.238281,0.291016 1.212891,-0.763672 c 3.268762,-2.058282 6.167338,-3.164044 8.298828,-3.166016 h 0.960937 l 0.236328,0.640625 c 0.522032,1.413402 0.819345,3.005052 0.884766,4.554687 0.07966,-1.922562 -0.21995,-4.012509 -0.884766,-5.8125 l -0.236328,-0.638671 h -0.960937 c -2.13149,0.002 -5.030066,1.107733 -8.298828,3.166015 l -1.212891,0.763672 -1.238281,-0.291016 c -5.265288,-1.238158 -11.021259,-1.28305 -16.052735,-0.123046 -1.976801,0.455741 -1.745145,0.481918 -3.052734,-0.339844 -3.230271,-2.030086 -6.229647,-3.174081 -8.326172,-3.175781 z m -0.443576,10.097727 c -0.06221,0.08661 -0.361071,0.543284 -0.46072,0.658132 -0.260421,0.300118 -0.719014,0.921507 -1.019532,1.380859 -1.723581,2.634574 -2.46606,5.537365 -2.361328,9.203125 0.08588,-3.083077 0.8395,-5.619127 2.361328,-7.945312 0.300518,-0.459353 0.759111,-1.080742 1.019532,-1.38086 0.34837,-0.401504 0.715171,-0.993907 0.665799,-1.165944 -0.08708,-0.303444 -0.14283,-0.516922 -0.205079,-0.75 z m 40.878608,0.06048 c -0.02914,0.09781 -0.05004,0.204076 -0.08203,0.298828 l -0.208984,0.621094 0.832546,0.972656 c 1.441986,1.672054 2.554374,3.968523 3.078125,6.353516 0.12516,0.56995 0.185309,1.811036 0.203125,3.134765 0.02281,-1.779105 -0.0373,-3.635497 -0.203125,-4.390625 -0.523751,-2.384992 -1.636139,-4.683414 -3.078125,-6.355469 z M 86.244141,50.34375 c -0.08,7.298295 -2.220902,14.46392 -6.248047,20.582031 -1.560389,2.370553 -2.813624,3.89277 -4.998047,6.074219 -4.117669,4.112137 -8.265148,6.799461 -13.582031,8.798828 -1.903578,0.715811 -2.826569,0.648392 -3.503907,-0.259766 -0.230525,-0.309059 -0.235422,-0.424531 -0.294921,-7.015624 l -0.06055,-6.703126 -0.292969,-1.082031 c -0.760515,-2.394993 -1.19427,-2.710993 -2.125099,-3.894102 -0.01652,0.0018 -0.04247,0.0081 -0.05859,0.0098 -0.398112,0.04179 -0.75341,0.09221 -0.791016,0.113281 -0.03761,0.02107 1.022803,1.388982 1.291115,1.681212 0.665117,0.724435 1.330092,2.045268 1.683594,3.345703 l 0.292969,1.083984 0.06055,6.701172 c 0.0595,6.591093 0.0644,6.706565 0.294921,7.015625 0.677338,0.908157 1.600329,0.975577 3.503907,0.259766 5.316883,-1.999368 9.464362,-4.684739 13.582031,-8.796876 2.184423,-2.181448 3.437658,-3.705619 4.998047,-6.076171 4.258232,-6.469183 6.415489,-14.107814 6.248047,-21.837891 z M 9.9121094,50.570312 c -0.00856,2.153378 0.054315,4.507811 0.1992186,5.525391 0.897995,6.307291 3.052015,11.899849 6.498047,16.876953 4.331693,6.256313 10.566155,11.160116 17.699219,13.921875 1.950026,0.75499 2.510343,0.820713 3.380859,0.388672 0.218219,-0.108302 0.499411,-0.385015 0.638672,-0.628906 0.243959,-0.427245 0.248245,-0.508949 0.25,-4.25 1.4e-4,-0.328285 -0.0052,-0.380898 -0.0059,-0.658203 -0.0038,2.845835 -0.02183,3.261062 -0.244141,3.65039 -0.139261,0.243891 -0.420453,0.520605 -0.638672,0.628907 -0.870516,0.43204 -1.430833,0.368271 -3.380859,-0.386719 C 27.17553,82.876913 20.941068,77.97311 16.609375,71.716797 13.163343,66.739693 11.009323,61.145181 10.111328,54.837891 9.9955022,54.024506 9.9312117,52.316496 9.9121094,50.570312 Z M 21.759766,64.890625 c -0.173535,-0.0015 -0.344319,0.0051 -0.515625,0.02344 -0.756227,0.081 -1.261719,0.375073 -1.261719,0.734376 0,0.160965 0.187147,0.432146 0.478516,0.730468 0.209377,-0.09716 0.467578,-0.173226 0.783203,-0.207031 1.37045,-0.14675 2.822763,0.346355 4.162109,1.412109 0.849941,0.6763 1.5079,1.442288 2.423828,2.822266 2.345715,3.534148 5.726212,4.624446 9.900391,3.195312 0.484906,-0.16597 0.919999,-0.376889 0.966797,-0.46875 0.0468,-0.09193 0.188997,-0.608889 0.314453,-1.15039 0.288534,-1.24548 1.717902,-3.528217 2.442055,-4.340702 0.310831,-0.348722 0.546152,-0.646214 0.523437,-0.66211 -0.01333,-0.0098 -0.519445,-0.08175 -0.873047,-0.134765 -1.233963,1.184153 -1.853121,2.846703 -2.092445,3.879764 -0.125456,0.541502 -0.267653,1.060414 -0.314453,1.152344 -0.0468,0.09186 -0.481891,0.302779 -0.966797,0.46875 -4.174179,1.429134 -7.554676,0.336883 -9.900391,-3.197265 -0.915928,-1.379981 -1.573887,-2.14597 -2.423828,-2.822269 -1.171927,-0.932535 -2.431744,-1.424864 -3.646484,-1.435547 z"
       sodipodi:nodetypes="cccccccccsccccccccccccccssccccccscscccccscscccscsscccccsccccccccccscsssscssccccscscccsccccccsccscsc" />
    <ellipse
       style="display:none;opacity:0.0983808;fill:#fafafa;fill-opacity:1;stroke-width:2.624;stroke-linecap:round;filter:url(#filter1862)"
       id="path1704"
       cx="48.08477"
       cy="42.509533"
       rx="18.208"
       ry="9.1040001" />
  </g>
</svg>
